<svg width="1100" height="205" viewBox="0 0 1440 205" fill="none" xmlns="http://www.w3.org/2000/svg">
<path d="M219.476 116.5C186.825 116.396 164.742 118.574 164.969 99" stroke="white"/>
<path d="M429.301 93.6461C438.966 76.1033 479.467 93.6461 482.361 78.7369C485.255 63.8277 503.392 94.3443 505.514 110.646" stroke="white"/>
<path d="M727.552 101C707.437 119.796 694.296 120.718 668.552 110.5" stroke="white"/>
<path d="M950.251 49.0211C931.097 39.4391 922.108 40.9579 908.768 56" stroke="white"/>
<path d="M1207.83 73.6862C1227.62 64.9486 1235.01 68.0863 1242.56 86" stroke="white"/>
<path d="M1032.25 93.5C1047.62 102.868 1054.33 103.093 1061.19 90" stroke="white"/>
<rect width="285.227" height="72.8647" rx="36.4323" transform="matrix(0.970987 -0.239134 0.223415 0.974723 0 67.8594)" fill="url(#paint0_linear_19_3)"/>
<path d="M39.1414 105.875C37.6996 106.23 36.3585 106.297 35.1181 106.077C33.8827 105.849 32.8392 105.376 31.9877 104.657C31.1411 103.93 30.5757 102.991 30.2913 101.839L34.5007 100.803C34.6375 101.281 34.893 101.668 35.267 101.965C35.646 102.254 36.1031 102.439 36.6382 102.518C37.1733 102.598 37.7465 102.563 38.358 102.412C38.9952 102.255 39.5325 102.004 39.9698 101.657C40.4071 101.31 40.7183 100.903 40.9032 100.434C41.0882 99.9652 41.1207 99.4691 41.0007 98.9457C40.8793 98.4159 40.6239 97.9839 40.2345 97.6498C39.8501 97.3076 39.3576 97.0876 38.7572 96.9897C38.1633 96.8903 37.493 96.9325 36.7463 97.1164L34.9023 97.5705L34.1959 94.4885L36.0399 94.0343C36.6707 93.879 37.2023 93.632 37.6346 93.2935C38.0734 92.9533 38.3836 92.5561 38.5651 92.1019C38.7451 91.6412 38.7751 91.1491 38.6551 90.6258C38.5411 90.1282 38.322 89.7214 37.998 89.4053C37.6789 89.0812 37.2825 88.8648 36.8088 88.7562C36.3416 88.646 35.828 88.6599 35.268 88.7978C34.7016 88.9373 34.2072 89.1683 33.7847 89.4908C33.3608 89.8068 33.0501 90.187 32.8528 90.6315C32.6555 91.076 32.605 91.5526 32.7012 92.0614L28.6945 93.0481C28.4516 91.8998 28.5456 90.8117 28.9765 89.7841C29.4073 88.7565 30.1007 87.8656 31.0566 87.1114C32.0175 86.3492 33.1737 85.8016 34.5254 85.4687C35.8899 85.1327 37.1409 85.0874 38.2783 85.3329C39.4157 85.5783 40.3647 86.0545 41.1251 86.7615C41.8905 87.4603 42.3899 88.3339 42.6234 89.3822C42.8845 90.492 42.7527 91.504 42.2279 92.4182C41.7095 93.3309 40.9197 94.0237 39.8585 94.4966L39.8941 94.6517C41.3917 94.4808 42.615 94.7154 43.5641 95.3554C44.5181 95.9873 45.1333 96.9211 45.4098 98.1568C45.6754 99.2859 45.5806 100.371 45.1255 101.411C44.6768 102.45 43.9374 103.362 42.9072 104.149C41.8771 104.935 40.6218 105.51 39.1414 105.875ZM56.2735 101.369L49.2642 103.095L44.7147 83.246L51.7819 81.5055C53.7708 81.0157 55.574 80.9914 57.1914 81.4326C58.8075 81.8674 60.1712 82.7295 61.2827 84.0189C62.4007 85.3067 63.1959 86.9812 63.6683 89.0423C64.1422 91.1099 64.1601 92.9827 63.7219 94.6606C63.2902 96.3369 62.4413 97.7507 61.1752 98.9021C59.9156 100.052 58.2817 100.874 56.2735 101.369ZM52.6205 98.4697L55.2756 97.8158C56.5114 97.5115 57.5005 97.0358 58.243 96.3887C58.9904 95.7337 59.4699 94.8886 59.6815 93.8536C59.898 92.8105 59.8366 91.5491 59.4975 90.0695C59.1613 88.6028 58.671 87.4574 58.0265 86.6332C57.3884 85.8074 56.5974 85.2786 55.6535 85.0469C54.7097 84.8152 53.6198 84.8515 52.384 85.1559L49.7193 85.8121L52.6205 98.4697ZM73.8802 76.0632L78.4297 95.9121L74.2492 96.9416L69.6997 77.0927L73.8802 76.0632ZM81.2482 95.2179L77.836 80.3313L81.9489 79.3183L85.3611 94.205L81.2482 95.2179ZM79.4623 77.9034C78.8508 78.054 78.2796 77.9797 77.7486 77.6804C77.2226 77.3731 76.8937 76.9319 76.7619 76.3569C76.6316 75.7883 76.7354 75.2474 77.0733 74.7341C77.4162 74.2128 77.8934 73.8768 78.5048 73.7262C79.1163 73.5756 79.6851 73.654 80.2111 73.9613C80.7421 74.2606 81.0727 74.6945 81.203 75.2631C81.3348 75.8382 81.2293 76.3863 80.8864 76.9076C80.5485 77.4209 80.0738 77.7528 79.4623 77.9034ZM87.6754 72.6657L92.2249 92.5146L88.112 93.5275L83.5625 73.6786L87.6754 72.6657ZM94.5392 70.9753L99.0887 90.8242L94.9758 91.8371L90.4263 71.9882L94.5392 70.9753ZM109.897 81.4661L107.937 72.9179L112.05 71.905L115.462 86.7917L111.514 87.7642L110.894 85.0602L110.739 85.0982C110.605 86.0529 110.209 86.8911 109.551 87.6127C108.9 88.3327 108.018 88.8299 106.905 89.1041C105.913 89.3482 104.989 89.3369 104.133 89.07C103.276 88.8032 102.54 88.3054 101.924 87.5765C101.314 86.846 100.873 85.9001 100.6 84.7386L98.4275 75.26L102.54 74.2471L104.544 82.9891C104.752 83.8663 105.146 84.503 105.727 84.8993C106.307 85.2956 106.987 85.3979 107.765 85.2061C108.261 85.084 108.699 84.8568 109.078 84.5244C109.456 84.1856 109.725 83.7576 109.885 83.2403C110.052 82.7214 110.056 82.1301 109.897 81.4661ZM128.108 72.435L124.396 73.5949C124.258 73.2877 124.053 73.031 123.781 72.8249C123.508 72.6123 123.18 72.4712 122.797 72.4018C122.418 72.3242 121.991 72.3441 121.515 72.4614C120.878 72.6184 120.371 72.8864 119.996 73.2656C119.619 73.6383 119.482 74.0475 119.584 74.4934C119.665 74.8487 119.876 75.1143 120.215 75.2901C120.555 75.4659 121.086 75.5433 121.808 75.5222L124.617 75.404C126.127 75.3461 127.311 75.5595 128.17 76.0442C129.029 76.5289 129.582 77.3075 129.828 78.3801C130.051 79.3557 129.961 80.2824 129.557 81.16C129.16 82.0361 128.513 82.803 127.616 83.4606C126.725 84.1102 125.635 84.5935 124.348 84.9105C122.385 85.394 120.727 85.3689 119.374 84.8352C118.026 84.2935 117.089 83.3365 116.563 81.9642L120.56 80.7547C120.82 81.3255 121.221 81.7113 121.764 81.9122C122.305 82.1066 122.942 82.1135 123.676 81.9327C124.396 81.7552 124.944 81.4736 125.318 81.088C125.697 80.6943 125.838 80.2738 125.743 79.8264C125.65 79.4532 125.422 79.1851 125.059 79.0222C124.693 78.8527 124.174 78.7827 123.501 78.8119L120.815 78.9308C119.3 78.9967 118.107 78.7582 117.234 78.2154C116.368 77.671 115.808 76.8431 115.553 75.7318C115.334 74.7755 115.403 73.8883 115.759 73.0701C116.122 72.2504 116.73 71.5374 117.584 70.9312C118.444 70.3234 119.508 69.8634 120.776 69.5511C122.649 69.0899 124.214 69.1242 125.472 69.6542C126.735 70.1826 127.614 71.1096 128.108 72.435ZM137.407 65.6602L138.118 68.7616L129.187 70.961L128.476 67.8596L137.407 65.6602ZM129.686 63.7937L133.799 62.7807L136.98 76.6595C137.068 77.0407 137.194 77.3236 137.359 77.5083C137.522 77.6865 137.716 77.7923 137.941 77.8256C138.173 77.8572 138.427 77.839 138.704 77.7708C138.897 77.7233 139.086 77.6596 139.272 77.5797C139.456 77.4934 139.598 77.4279 139.696 77.3831L141.047 80.2961C140.856 80.4115 140.583 80.5571 140.229 80.733C139.877 80.9154 139.436 81.0821 138.906 81.2331C137.924 81.5159 137.024 81.5975 136.208 81.4777C135.398 81.3563 134.714 81.0265 134.155 80.4883C133.597 79.9501 133.209 79.1924 132.992 78.2151L129.686 63.7937ZM142.955 80.0209L139.542 65.1343L143.53 64.1522L144.125 66.7497L144.28 66.7116C144.338 65.7211 144.632 64.9115 145.161 64.2829C145.689 63.6478 146.368 63.2281 147.198 63.0236C147.404 62.9729 147.629 62.9311 147.873 62.8983C148.117 62.8655 148.334 62.8495 148.525 62.8503L149.365 66.5139C149.158 66.5033 148.879 66.5174 148.528 66.5561C148.176 66.5949 147.859 66.6492 147.576 66.7189C146.971 66.868 146.46 67.1336 146.045 67.5158C145.634 67.8899 145.344 68.3437 145.174 68.8771C145.01 69.4089 144.998 69.9784 145.137 70.5858L147.067 79.008L142.955 80.0209ZM157.404 76.7593C156.458 76.9923 155.577 77.0352 154.761 76.888C153.944 76.7343 153.245 76.3843 152.664 75.8379C152.088 75.2835 151.688 74.5152 151.462 73.5331C151.273 72.7061 151.265 71.9742 151.439 71.3376C151.612 70.701 151.921 70.1472 152.363 69.6764C152.806 69.2055 153.339 68.8013 153.962 68.4635C154.592 68.1242 155.265 67.8287 155.982 67.5769C156.824 67.274 157.5 67.0188 158.01 66.8113C158.519 66.5973 158.873 66.3802 159.075 66.1601C159.276 65.9399 159.34 65.6715 159.267 65.3549L159.254 65.2967C159.113 64.6829 158.811 64.2556 158.348 64.0147C157.892 63.7722 157.312 63.7374 156.611 63.9102C155.871 64.0925 155.319 64.4023 154.957 64.8396C154.594 65.2705 154.397 65.7488 154.368 66.2748L150.493 66.9015C150.479 65.9493 150.68 65.074 151.095 64.2755C151.509 63.4705 152.122 62.7801 152.936 62.2044C153.754 61.6207 154.755 61.1829 155.939 60.8913C156.763 60.6884 157.574 60.5911 158.371 60.5995C159.175 60.6063 159.917 60.7411 160.596 61.0039C161.281 61.2651 161.868 61.6735 162.356 62.2292C162.842 62.7784 163.186 63.4955 163.389 64.3807L165.691 74.4215L161.79 75.3821L161.317 73.3177L161.201 73.3463C161.07 73.8701 160.845 74.3589 160.527 74.8125C160.208 75.2597 159.792 75.6524 159.278 75.9906C158.762 76.3224 158.138 76.5786 157.404 76.7593ZM157.929 73.6198C158.534 73.4708 159.04 73.2197 159.449 72.8665C159.856 72.5069 160.144 72.0878 160.313 71.6093C160.483 71.1308 160.507 70.6298 160.387 70.1065L160.025 68.5267C159.916 68.6424 159.756 68.7635 159.547 68.8901C159.343 69.0086 159.11 69.131 158.846 69.2573C158.581 69.3772 158.316 69.4938 158.049 69.6072C157.781 69.7141 157.538 69.8115 157.321 69.8992C156.854 70.0892 156.458 70.3061 156.134 70.5499C155.809 70.7938 155.577 71.0727 155.438 71.3868C155.298 71.6944 155.272 72.042 155.361 72.4297C155.49 72.9918 155.791 73.3715 156.265 73.5689C156.743 73.7582 157.298 73.7752 157.929 73.6198ZM172.814 56.9403L173.524 60.0416L164.594 62.2411L163.883 59.1397L172.814 56.9403ZM165.093 55.0737L169.206 54.0608L172.387 67.9396C172.474 68.3208 172.6 68.6037 172.765 68.7884C172.928 68.9666 173.123 69.0724 173.348 69.1057C173.579 69.1373 173.834 69.1191 174.11 69.0509C174.304 69.0034 174.493 68.9397 174.679 68.8598C174.863 68.7735 175.004 68.708 175.103 68.6632L176.454 71.5762C176.263 71.6916 175.99 71.8372 175.636 72.0131C175.283 72.1955 174.842 72.3622 174.312 72.5132C173.33 72.796 172.431 72.8776 171.615 72.7578C170.805 72.6364 170.121 72.3066 169.562 71.7684C169.004 71.2302 168.616 70.4725 168.398 69.4952L165.093 55.0737ZM178.361 71.301L174.949 56.4143L179.062 55.4014L182.474 70.2881L178.361 71.301ZM176.575 53.9865C175.964 54.1371 175.393 54.0628 174.862 53.7635C174.336 53.4562 174.007 53.015 173.875 52.44C173.744 51.8714 173.848 51.3304 174.186 50.8172C174.529 50.2959 175.006 49.9599 175.618 49.8093C176.229 49.6587 176.798 49.7371 177.324 50.0444C177.855 50.3437 178.186 50.7776 178.316 51.3462C178.448 51.9212 178.342 52.4694 177.999 52.9907C177.661 53.504 177.187 53.8359 176.575 53.9865ZM191.992 68.2512C190.492 68.6206 189.122 68.6201 187.881 68.2499C186.645 67.8717 185.599 67.1805 184.744 66.1762C183.886 65.1655 183.283 63.8977 182.934 62.3728C182.581 60.8351 182.569 59.4182 182.898 58.1223C183.225 56.8199 183.859 55.7149 184.8 54.8073C185.746 53.8917 186.969 53.2493 188.469 52.8799C189.968 52.5106 191.336 52.515 192.572 52.8933C193.813 53.2634 194.862 53.9539 195.719 54.9646C196.575 55.9689 197.179 57.2399 197.531 58.7777C197.881 60.3025 197.892 61.7162 197.565 63.0186C197.237 64.3145 196.599 65.4203 195.653 66.3359C194.712 67.2434 193.492 67.8819 191.992 68.2512ZM191.278 65.0481C191.96 64.8801 192.486 64.546 192.854 64.0458C193.22 63.5391 193.442 62.918 193.518 62.1825C193.601 61.4454 193.543 60.644 193.344 59.7782C193.146 58.9124 192.85 58.1696 192.456 57.5498C192.069 56.9284 191.602 56.477 191.054 56.1954C190.507 55.9138 189.892 55.857 189.21 56.025C188.521 56.1946 187.987 56.5344 187.608 57.0442C187.235 57.5525 187.007 58.1752 186.924 58.9122C186.848 59.6477 186.909 60.4484 187.107 61.3142C187.306 62.18 187.599 62.9236 187.986 63.545C188.38 64.1647 188.853 64.6146 189.407 64.8946C189.966 65.1666 190.589 65.2178 191.278 65.0481ZM203.495 56.0189L205.468 64.6252L201.355 65.6381L197.943 50.7515L201.862 49.7861L202.465 52.4126L202.638 52.3698C202.768 51.4231 203.161 50.6027 203.818 49.9085C204.474 49.2079 205.352 48.722 206.452 48.4509C207.482 48.1973 208.432 48.2023 209.301 48.466C210.171 48.7296 210.915 49.2291 211.532 49.9645C212.148 50.6933 212.588 51.6361 212.853 52.7926L215.026 62.2712L210.913 63.2842L208.909 54.5421C208.707 53.6295 208.312 52.9758 207.725 52.5811C207.137 52.1799 206.431 52.0808 205.607 52.2837C205.054 52.42 204.592 52.66 204.222 53.0037C203.858 53.3458 203.61 53.7756 203.477 54.293C203.349 54.8023 203.355 55.3776 203.495 56.0189Z" fill="#1A1C1E"/>
<rect width="277.229" height="72.9129" rx="36.4565" transform="matrix(0.981398 0.191986 -0.179122 0.983827 209.863 45)" fill="url(#paint1_linear_19_3)"/>
<path d="M223.221 94.481L226.868 74.4467L234.753 75.9891C236.269 76.2856 237.507 76.8285 238.469 77.6176C239.431 78.4002 240.099 79.3582 240.472 80.4915C240.853 81.6196 240.922 82.8489 240.68 84.1793C240.437 85.5097 239.937 86.6275 239.18 87.5329C238.422 88.4383 237.448 89.0684 236.259 89.4233C235.075 89.7794 233.716 89.8073 232.181 89.5069L227.155 88.5238L227.773 85.1293L232.116 85.9788C232.929 86.1379 233.625 86.1288 234.203 85.9514C234.788 85.7688 235.257 85.4519 235.609 85.0006C235.968 84.5441 236.207 83.9865 236.327 83.3279C236.449 82.6627 236.421 82.0562 236.244 81.5083C236.076 80.9553 235.749 80.4896 235.266 80.1113C234.783 79.7266 234.132 79.454 233.313 79.2936L230.463 78.7362L227.446 95.3076L223.221 94.481ZM240.385 97.8387L243.121 82.813L247.151 83.6014L246.673 86.223L246.83 86.2536C247.273 85.3745 247.859 84.7598 248.59 84.4098C249.322 84.0532 250.108 83.9569 250.947 84.1211C251.155 84.1618 251.377 84.2188 251.613 84.292C251.849 84.3651 252.054 84.4424 252.228 84.5236L251.554 88.2214C251.37 88.1245 251.11 88.0195 250.773 87.9064C250.437 87.7933 250.125 87.7088 249.839 87.6528C249.227 87.5331 248.657 87.5599 248.127 87.7331C247.604 87.9011 247.16 88.1925 246.795 88.6073C246.436 89.0234 246.201 89.538 246.09 90.151L244.542 98.6519L240.385 97.8387ZM257.1 101.413C255.585 101.116 254.332 100.537 253.344 99.6748C252.363 98.8076 251.679 97.735 251.292 96.4571C250.906 95.1726 250.853 93.7609 251.134 92.2218C251.416 90.6696 251.962 89.3717 252.772 88.3279C253.583 87.2776 254.597 86.5372 255.814 86.1067C257.039 85.6709 258.409 85.6012 259.925 85.8977C261.441 86.1943 262.689 86.7761 263.67 87.6434C264.658 88.5054 265.345 89.5786 265.731 90.863C266.118 92.1409 266.171 93.556 265.888 95.1081C265.608 96.6472 265.062 97.9419 264.251 98.9922C263.441 100.036 262.424 100.776 261.199 101.212C259.982 101.642 258.616 101.709 257.1 101.413ZM257.708 98.1882C258.397 98.3231 259.008 98.2401 259.542 97.9392C260.076 97.6317 260.523 97.1585 260.881 96.5195C261.247 95.8819 261.509 95.1261 261.668 94.2522C261.827 93.3783 261.849 92.5754 261.733 91.8436C261.623 91.113 261.374 90.5036 260.984 90.0154C260.595 89.5273 260.055 89.2157 259.366 89.0808C258.67 88.9447 258.048 89.029 257.501 89.3339C256.96 89.6401 256.507 90.1121 256.141 90.7497C255.782 91.3887 255.523 92.1451 255.364 93.019C255.205 93.8929 255.18 94.6951 255.29 95.4257C255.406 96.1576 255.662 96.7682 256.058 97.2577C256.462 97.7419 257.011 98.052 257.708 98.1882ZM269.42 87.9578L273.577 88.771L270.706 104.54C270.495 105.701 270.096 106.596 269.51 107.224C268.924 107.852 268.175 108.249 267.262 108.415C266.356 108.582 265.314 108.551 264.136 108.32C263.993 108.292 263.857 108.262 263.728 108.23C263.592 108.204 263.449 108.172 263.301 108.137L263.894 104.879C264.003 104.907 264.1 104.93 264.185 104.946C264.261 104.968 264.345 104.988 264.437 105.006C265.107 105.137 265.601 105.085 265.92 104.85C266.244 104.623 266.458 104.226 266.561 103.659L269.42 87.9578ZM271.841 86.4256C271.23 86.306 270.74 85.9975 270.373 85.5001C270.006 84.9961 269.876 84.454 269.982 83.8736C270.086 83.2997 270.397 82.8505 270.914 82.5262C271.433 82.1954 271.998 82.0898 272.609 82.2094C273.234 82.3316 273.726 82.644 274.086 83.1466C274.453 83.644 274.585 84.1797 274.48 84.7536C274.375 85.334 274.063 85.7896 273.544 86.1205C273.034 86.4461 272.466 86.5478 271.841 86.4256ZM280.399 105.97C278.857 105.669 277.587 105.096 276.589 104.252C275.598 103.404 274.908 102.343 274.52 101.072C274.133 99.794 274.084 98.3627 274.372 96.7779C274.654 95.2323 275.2 93.9344 276.011 92.8841C276.822 91.8338 277.83 91.0889 279.035 90.6492C280.247 90.2109 281.588 90.1355 283.058 90.4231C284.047 90.6166 284.938 90.9564 285.732 91.4427C286.534 91.9237 287.196 92.5429 287.718 93.3002C288.247 94.0588 288.603 94.9524 288.787 95.9811C288.971 97.0032 288.947 98.1534 288.714 99.4316L288.506 100.576L275.849 98.1003L276.32 95.5177L285.063 97.2281C285.172 96.6282 285.139 96.0712 284.963 95.5573C284.787 95.0433 284.492 94.6107 284.077 94.2595C283.671 93.903 283.165 93.6656 282.56 93.5473C281.929 93.4238 281.343 93.4611 280.801 93.6591C280.268 93.8519 279.82 94.1661 279.457 94.6018C279.096 95.031 278.858 95.5416 278.744 96.1338L278.297 98.5892C278.162 99.3327 278.181 100.002 278.356 100.596C278.537 101.193 278.855 101.687 279.309 102.08C279.763 102.472 280.338 102.737 281.034 102.873C281.496 102.963 281.93 102.981 282.338 102.926C282.746 102.87 283.11 102.739 283.43 102.531C283.751 102.324 284.017 102.045 284.229 101.695L288.028 102.701C287.664 103.589 287.117 104.32 286.386 104.893C285.663 105.46 284.791 105.844 283.771 106.043C282.759 106.236 281.635 106.212 280.399 105.97ZM296.214 109.064C294.679 108.764 293.417 108.179 292.43 107.311C291.451 106.437 290.771 105.359 290.392 104.076C290.019 102.794 289.971 101.393 290.247 99.8734C290.528 98.3343 291.069 97.0423 291.873 95.9972C292.684 94.9469 293.698 94.2033 294.917 93.7662C296.136 93.3226 297.503 93.249 299.019 93.5456C300.327 93.8014 301.428 94.2634 302.324 94.9316C303.22 95.5999 303.875 96.4204 304.291 97.3933C304.707 98.3661 304.838 99.4387 304.686 100.611L300.763 99.8436C300.789 99.0719 300.606 98.4114 300.214 97.862C299.83 97.3074 299.257 96.9556 298.496 96.8067C297.852 96.6807 297.257 96.7467 296.712 97.0047C296.174 97.2574 295.711 97.6903 295.323 98.3033C294.936 98.9163 294.656 99.6957 294.483 100.641C294.309 101.6 294.291 102.441 294.428 103.163C294.573 103.887 294.854 104.472 295.271 104.919C295.688 105.365 296.219 105.651 296.863 105.777C297.338 105.87 297.782 105.856 298.195 105.734C298.614 105.613 298.981 105.391 299.296 105.068C299.619 104.739 299.867 104.318 300.042 103.805L303.964 104.573C303.69 105.708 303.194 106.658 302.475 107.422C301.765 108.181 300.877 108.71 299.812 109.008C298.747 109.306 297.548 109.325 296.214 109.064ZM315.782 97.0273L315.212 100.158L306.185 98.3919L306.755 95.2616L315.782 97.0273ZM309.46 92.0625L313.617 92.8757L311.067 106.884C310.997 107.269 311 107.58 311.078 107.818C311.157 108.05 311.293 108.229 311.486 108.354C311.685 108.481 311.925 108.572 312.205 108.626C312.4 108.665 312.598 108.686 312.799 108.692C313.001 108.691 313.156 108.691 313.264 108.692L313.353 111.921C313.133 111.945 312.827 111.963 312.434 111.974C312.04 111.991 311.571 111.957 311.028 111.871C310.019 111.714 309.165 111.409 308.466 110.954C307.774 110.502 307.278 109.912 306.979 109.185C306.681 108.457 306.624 107.602 306.81 106.619L309.46 92.0625ZM341.096 104.056L336.822 103.22C336.845 102.651 336.775 102.127 336.613 101.65C336.452 101.166 336.211 100.733 335.889 100.353C335.568 99.9727 335.174 99.6526 334.71 99.3929C334.252 99.1344 333.736 98.9492 333.164 98.8372C332.129 98.6348 331.181 98.7162 330.32 99.0812C329.46 99.4397 328.729 100.067 328.128 100.962C327.528 101.851 327.102 102.99 326.849 104.379C326.589 105.808 326.582 107.049 326.828 108.103C327.08 109.159 327.545 110.01 328.223 110.656C328.9 111.301 329.743 111.723 330.751 111.92C331.317 112.031 331.855 112.058 332.363 112.003C332.879 111.948 333.351 111.814 333.781 111.601C334.211 111.381 334.588 111.087 334.911 110.718C335.241 110.35 335.504 109.909 335.698 109.393L339.969 110.249C339.691 111.147 339.253 111.979 338.655 112.747C338.065 113.51 337.338 114.154 336.474 114.681C335.618 115.202 334.643 115.559 333.551 115.75C332.466 115.936 331.282 115.904 330.001 115.654C328.218 115.305 326.698 114.589 325.44 113.505C324.189 112.423 323.296 111.036 322.762 109.344C322.234 107.654 322.169 105.72 322.565 103.541C322.963 101.357 323.711 99.5781 324.81 98.2059C325.909 96.8337 327.234 95.884 328.785 95.3567C330.337 94.8229 331.992 94.7278 333.748 95.0714C334.906 95.298 335.95 95.671 336.879 96.1905C337.815 96.7113 338.61 97.3598 339.264 98.1361C339.919 98.9058 340.405 99.7877 340.722 100.782C341.046 101.777 341.171 102.869 341.096 104.056ZM347.847 119.165C346.331 118.868 345.079 118.289 344.091 117.427C343.11 116.56 342.426 115.487 342.039 114.209C341.653 112.925 341.6 111.513 341.88 109.974C342.163 108.422 342.709 107.124 343.519 106.08C344.33 105.03 345.344 104.29 346.561 103.859C347.786 103.423 349.156 103.354 350.672 103.65C352.187 103.947 353.436 104.528 354.416 105.396C355.405 106.258 356.092 107.331 356.478 108.615C356.865 109.893 356.917 111.308 356.635 112.86C356.354 114.4 355.809 115.694 354.998 116.745C354.188 117.788 353.171 118.528 351.946 118.964C350.729 119.394 349.363 119.461 347.847 119.165ZM348.454 115.941C349.144 116.075 349.755 115.992 350.288 115.692C350.823 115.384 351.269 114.911 351.628 114.272C351.993 113.634 352.256 112.878 352.415 112.005C352.574 111.131 352.595 110.328 352.479 109.596C352.37 108.865 352.12 108.256 351.731 107.768C351.341 107.28 350.802 106.968 350.112 106.833C349.416 106.697 348.795 106.781 348.247 107.086C347.706 107.392 347.253 107.864 346.888 108.502C346.529 109.141 346.27 109.897 346.111 110.771C345.952 111.645 345.927 112.447 346.037 113.178C346.153 113.91 346.409 114.521 346.805 115.01C347.208 115.494 347.758 115.804 348.454 115.941ZM363.17 112.862L361.588 121.549L357.431 120.736L360.167 105.71L364.128 106.485L363.646 109.136L363.821 109.171C364.312 108.362 364.994 107.779 365.868 107.423C366.742 107.061 367.736 106.988 368.848 107.206C369.889 107.409 370.755 107.815 371.446 108.423C372.137 109.031 372.62 109.801 372.895 110.733C373.171 111.658 373.203 112.704 372.99 113.872L371.249 123.439L367.092 122.626L368.698 113.802C368.872 112.884 368.768 112.121 368.387 111.512C368.007 110.898 367.401 110.509 366.568 110.346C366.009 110.237 365.493 110.261 365.019 110.418C364.552 110.577 364.157 110.864 363.832 111.28C363.514 111.69 363.294 112.218 363.17 112.862ZM388.402 115.671L384.553 115.161C384.548 114.822 384.461 114.502 384.294 114.199C384.128 113.889 383.884 113.622 383.561 113.397C383.246 113.166 382.848 113.004 382.366 112.91C381.722 112.784 381.154 112.815 380.662 113.002C380.171 113.183 379.884 113.498 379.802 113.948C379.737 114.307 379.825 114.638 380.066 114.942C380.307 115.246 380.762 115.541 381.431 115.827L384.044 116.905C385.447 117.49 386.445 118.186 387.04 118.991C387.634 119.796 387.833 120.74 387.636 121.822C387.456 122.807 387.01 123.615 386.295 124.245C385.587 124.876 384.695 125.303 383.617 125.524C382.547 125.74 381.361 125.721 380.06 125.467C378.076 125.078 376.57 124.355 375.544 123.296C374.525 122.233 374.045 120.964 374.104 119.489L378.232 120.074C378.245 120.705 378.46 121.226 378.877 121.639C379.295 122.045 379.875 122.32 380.616 122.465C381.345 122.608 381.956 122.582 382.449 122.388C382.951 122.189 383.245 121.865 383.334 121.417C383.396 121.037 383.293 120.696 383.025 120.394C382.758 120.085 382.311 119.801 381.684 119.544L379.183 118.517C377.772 117.938 376.775 117.216 376.191 116.352C375.614 115.489 375.428 114.497 375.632 113.375C375.808 112.41 376.219 111.63 376.867 111.034C377.521 110.439 378.357 110.045 379.376 109.853C380.401 109.662 381.554 109.692 382.836 109.942C384.729 110.313 386.146 111.005 387.086 112.02C388.033 113.036 388.471 114.253 388.402 115.671ZM399.633 122.366L401.203 113.738L405.36 114.551L402.625 129.577L398.634 128.796L399.131 126.067L398.974 126.036C398.476 126.851 397.784 127.448 396.9 127.829C396.022 128.211 395.02 128.292 393.895 128.072C392.893 127.876 392.053 127.475 391.375 126.87C390.697 126.264 390.22 125.499 389.943 124.574C389.674 123.65 389.643 122.6 389.85 121.425L391.592 111.858L395.749 112.671L394.142 121.495C393.987 122.383 394.097 123.13 394.472 123.737C394.846 124.344 395.427 124.724 396.214 124.878C396.715 124.976 397.204 124.954 397.682 124.811C398.16 124.661 398.575 124.384 398.924 123.98C399.281 123.577 399.517 123.039 399.633 122.366ZM413.205 110.899L409.557 130.933L405.4 130.12L409.048 110.086L413.205 110.899ZM423.046 118.011L422.476 121.141L413.45 119.376L414.02 116.245L423.046 118.011ZM416.724 113.046L420.881 113.859L418.331 127.868C418.261 128.252 418.265 128.564 418.343 128.802C418.422 129.034 418.558 129.212 418.75 129.338C418.95 129.464 419.189 129.555 419.469 129.61C419.664 129.648 419.862 129.67 420.063 129.676C420.265 129.675 420.42 129.675 420.528 129.675L420.617 132.904C420.397 132.929 420.091 132.946 419.698 132.957C419.304 132.975 418.835 132.941 418.292 132.855C417.283 132.698 416.429 132.392 415.73 131.938C415.038 131.485 414.542 130.895 414.243 130.168C413.945 129.441 413.888 128.586 414.074 127.602L416.724 113.046ZM426.691 134.579C425.735 134.392 424.913 134.059 424.225 133.58C423.539 133.094 423.038 132.479 422.722 131.736C422.413 130.986 422.35 130.116 422.53 129.125C422.682 128.29 422.962 127.619 423.372 127.111C423.781 126.604 424.28 126.229 424.87 125.986C425.46 125.744 426.106 125.6 426.808 125.555C427.517 125.511 428.248 125.526 429.003 125.599C429.891 125.678 430.609 125.731 431.157 125.757C431.706 125.777 432.116 125.729 432.386 125.613C432.656 125.497 432.821 125.279 432.879 124.959L432.889 124.901C433.002 124.281 432.894 123.764 432.566 123.348C432.244 122.934 431.728 122.657 431.019 122.519C430.271 122.372 429.645 122.422 429.142 122.668C428.641 122.908 428.273 123.261 428.04 123.729L424.252 122.664C424.613 121.789 425.141 121.075 425.834 120.522C426.529 119.962 427.361 119.591 428.331 119.41C429.308 119.223 430.395 119.246 431.592 119.48C432.425 119.643 433.204 119.897 433.93 120.241C434.662 120.587 435.286 121.023 435.804 121.55C436.327 122.078 436.703 122.699 436.93 123.412C437.158 124.118 437.191 124.918 437.029 125.812L435.183 135.946L431.241 135.175L431.621 133.091L431.503 133.068C431.177 133.491 430.78 133.842 430.311 134.122C429.844 134.395 429.309 134.577 428.706 134.669C428.104 134.754 427.433 134.724 426.691 134.579ZM428.405 131.936C429.017 132.055 429.579 132.04 430.091 131.891C430.604 131.734 431.032 131.474 431.375 131.108C431.718 130.743 431.937 130.297 432.034 129.768L432.324 128.174C432.178 128.233 431.985 128.276 431.744 128.304C431.511 128.325 431.25 128.338 430.959 128.342C430.67 128.34 430.381 128.334 430.093 128.325C429.806 128.309 429.546 128.296 429.313 128.284C428.812 128.26 428.365 128.291 427.972 128.376C427.579 128.461 427.257 128.618 427.007 128.846C426.758 129.067 426.598 129.374 426.527 129.765C426.423 130.332 426.549 130.806 426.904 131.186C427.267 131.561 427.768 131.811 428.405 131.936ZM443.598 128.596L442.016 137.283L437.859 136.47L440.595 121.444L444.556 122.219L444.074 124.87L444.249 124.904C444.74 124.095 445.422 123.513 446.296 123.157C447.17 122.794 448.164 122.722 449.276 122.94C450.317 123.143 451.183 123.549 451.874 124.157C452.565 124.765 453.048 125.535 453.323 126.467C453.599 127.392 453.631 128.438 453.418 129.606L451.677 139.173L447.52 138.36L449.126 129.536C449.3 128.618 449.196 127.854 448.815 127.246C448.435 126.632 447.829 126.243 446.996 126.08C446.437 125.971 445.921 125.994 445.447 126.152C444.98 126.31 444.585 126.598 444.26 127.014C443.942 127.424 443.722 127.952 443.598 128.596ZM465.111 126.24L464.542 129.37L455.515 127.605L456.085 124.474L465.111 126.24ZM458.79 121.275L462.947 122.088L460.396 136.097C460.326 136.482 460.33 136.793 460.408 137.031C460.487 137.263 460.623 137.441 460.816 137.567C461.015 137.694 461.255 137.784 461.534 137.839C461.729 137.877 461.928 137.899 462.129 137.905C462.331 137.904 462.486 137.904 462.594 137.904L462.683 141.133C462.463 141.158 462.156 141.176 461.764 141.187C461.37 141.204 460.901 141.17 460.357 141.084C459.348 140.927 458.495 140.621 457.796 140.167C457.103 139.714 456.608 139.124 456.309 138.397C456.01 137.67 455.954 136.815 456.14 135.831L458.79 121.275Z" fill="#1A1C1E"/>
<rect width="274.471" height="72.6362" rx="36.3181" transform="matrix(0.920604 -0.390499 0.367198 0.930143 429.301 137.18)" fill="url(#paint2_linear_19_3)"/>
<path d="M470.461 169.673L457.619 153.007L461.949 151.17L470.247 163.015L470.403 162.949L468.631 148.336L472.338 146.763L480.959 158.504L481.124 158.434L479.021 143.929L483.35 142.092L485.464 163.309L481.601 164.947L473.142 154.078L472.996 154.14L474.324 168.034L470.461 169.673ZM497.367 158.584C495.921 159.197 494.559 159.429 493.282 159.28C492.008 159.122 490.875 158.616 489.883 157.763C488.889 156.904 488.095 155.725 487.504 154.227C486.927 152.765 486.702 151.364 486.827 150.022C486.953 148.68 487.404 147.485 488.179 146.436C488.961 145.385 490.042 144.566 491.421 143.981C492.348 143.588 493.272 143.373 494.19 143.336C495.113 143.29 495.991 143.439 496.825 143.784C497.665 144.125 498.432 144.678 499.126 145.442C499.817 146.2 500.401 147.183 500.878 148.392L501.305 149.474L489.433 154.51L488.469 152.068L496.67 148.589C496.446 148.022 496.126 147.571 495.709 147.237C495.292 146.903 494.818 146.704 494.288 146.641C493.761 146.57 493.214 146.654 492.646 146.895C492.054 147.146 491.584 147.508 491.236 147.979C490.891 148.442 490.682 148.959 490.608 149.53C490.532 150.095 490.602 150.659 490.817 151.223L491.734 153.545C492.011 154.247 492.379 154.8 492.837 155.203C493.302 155.604 493.827 155.842 494.412 155.917C494.998 155.993 495.617 155.892 496.27 155.615C496.703 155.432 497.076 155.202 497.387 154.926C497.698 154.65 497.934 154.334 498.093 153.979C498.252 153.623 498.328 153.238 498.321 152.824L502.022 151.534C502.185 152.487 502.111 153.411 501.802 154.306C501.496 155.191 500.969 156.005 500.222 156.746C499.478 157.479 498.527 158.092 497.367 158.584ZM505.813 154.677L498.336 135.736L502.235 134.082L505.047 141.203L505.166 141.153C505.186 140.698 505.28 140.205 505.447 139.673C505.618 139.132 505.914 138.618 506.334 138.13C506.758 137.634 507.364 137.219 508.151 136.885C509.176 136.45 510.229 136.32 511.31 136.495C512.388 136.664 513.401 137.181 514.348 138.046C515.293 138.905 516.086 140.148 516.729 141.776C517.354 143.361 517.629 144.806 517.554 146.112C517.482 147.41 517.123 148.523 516.478 149.451C515.837 150.371 514.982 151.058 513.914 151.511C513.157 151.832 512.464 151.978 511.833 151.951C511.208 151.921 510.653 151.786 510.166 151.546C509.677 151.3 509.266 151.017 508.934 150.697L508.76 150.771L509.658 153.046L505.813 154.677ZM506.826 145.955C507.16 146.8 507.567 147.487 508.047 148.018C508.527 148.548 509.056 148.896 509.634 149.061C510.21 149.22 510.812 149.166 511.441 148.9C512.075 148.63 512.543 148.227 512.844 147.689C513.142 147.145 513.28 146.511 513.257 145.786C513.238 145.053 513.066 144.273 512.74 143.447C512.416 142.627 512.018 141.953 511.547 141.426C511.075 140.899 510.55 140.553 509.972 140.388C509.394 140.223 508.785 140.276 508.144 140.548C507.509 140.817 507.039 141.215 506.734 141.74C506.434 142.263 506.291 142.885 506.305 143.606C506.319 144.327 506.493 145.11 506.826 145.955ZM533.781 142.814L527.136 145.632L519.658 126.691L526.359 123.849C528.244 123.049 530.017 122.74 531.678 122.921C533.335 123.096 534.809 123.734 536.099 124.836C537.395 125.934 538.431 127.467 539.207 129.434C539.986 131.407 540.286 133.259 540.108 134.99C539.935 136.719 539.312 138.254 538.239 139.595C537.171 140.933 535.685 142.006 533.781 142.814ZM529.745 140.52L532.262 139.452C533.434 138.955 534.336 138.328 534.97 137.569C535.608 136.802 535.953 135.889 536.005 134.83C536.061 133.763 535.81 132.523 535.253 131.111C534.7 129.712 534.044 128.655 533.285 127.94C532.532 127.223 531.673 126.825 530.708 126.744C529.743 126.664 528.674 126.873 527.503 127.37L524.976 128.441L529.745 140.52ZM551.818 135.487C550.372 136.1 549.01 136.332 547.733 136.183C546.459 136.025 545.326 135.52 544.334 134.666C543.339 133.807 542.546 132.628 541.955 131.13C541.378 129.669 541.152 128.267 541.278 126.925C541.404 125.583 541.854 124.388 542.63 123.339C543.412 122.288 544.492 121.47 545.872 120.885C546.799 120.491 547.722 120.276 548.641 120.239C549.563 120.193 550.442 120.343 551.276 120.687C552.116 121.029 552.883 121.582 553.576 122.346C554.267 123.103 554.851 124.087 555.328 125.295L555.756 126.377L543.883 131.413L542.919 128.972L551.121 125.493C550.897 124.925 550.577 124.475 550.16 124.14C549.743 123.806 549.269 123.608 548.738 123.545C548.211 123.473 547.664 123.558 547.097 123.798C546.505 124.05 546.035 124.411 545.687 124.882C545.342 125.345 545.133 125.862 545.059 126.433C544.983 126.998 545.053 127.563 545.268 128.126L546.184 130.448C546.462 131.151 546.83 131.704 547.288 132.107C547.753 132.507 548.278 132.745 548.863 132.821C549.449 132.896 550.068 132.796 550.721 132.519C551.154 132.335 551.526 132.105 551.838 131.829C552.149 131.553 552.384 131.237 552.543 130.882C552.702 130.526 552.778 130.141 552.771 129.727L556.473 128.438C556.635 129.391 556.562 130.315 556.252 131.209C555.946 132.094 555.42 132.908 554.673 133.65C553.929 134.383 552.977 134.995 551.818 135.487ZM567.313 112.005L568.006 128.296L563.612 130.16L553.088 118.039L557.208 116.292L564.14 125.218L564.287 125.156L563.185 113.757L567.313 112.005ZM580.465 123.335C579.019 123.949 577.657 124.181 576.38 124.032C575.107 123.873 573.974 123.368 572.981 122.515C571.987 121.655 571.194 120.477 570.602 118.978C570.025 117.517 569.8 116.115 569.926 114.774C570.051 113.432 570.502 112.236 571.278 111.188C572.059 110.136 573.14 109.318 574.519 108.733C575.447 108.339 576.37 108.124 577.289 108.087C578.211 108.042 579.089 108.191 579.923 108.535C580.764 108.877 581.53 109.43 582.224 110.194C582.915 110.952 583.499 111.935 583.976 113.143L584.403 114.226L572.531 119.262L571.567 116.82L579.769 113.341C579.545 112.774 579.224 112.323 578.807 111.989C578.39 111.654 577.917 111.456 577.386 111.393C576.859 111.322 576.312 111.406 575.744 111.647C575.152 111.898 574.682 112.259 574.334 112.731C573.99 113.194 573.781 113.711 573.707 114.282C573.631 114.847 573.7 115.411 573.916 115.975L574.832 118.296C575.11 118.999 575.477 119.552 575.936 119.955C576.4 120.356 576.925 120.594 577.511 120.669C578.096 120.745 578.715 120.644 579.368 120.367C579.802 120.183 580.174 119.953 580.485 119.677C580.797 119.401 581.032 119.085 581.191 118.73C581.35 118.375 581.426 117.99 581.419 117.575L585.12 116.286C585.283 117.239 585.209 118.163 584.9 119.057C584.594 119.943 584.067 120.756 583.32 121.498C582.576 122.231 581.625 122.843 580.465 123.335ZM585.26 98.8645L592.738 117.806L588.838 119.46L581.361 100.519L585.26 98.8645ZM601.808 114.282C600.386 114.885 599.036 115.102 597.758 114.931C596.483 114.752 595.348 114.233 594.354 113.373C593.357 112.508 592.571 111.348 591.996 109.893C591.417 108.425 591.192 107.024 591.32 105.688C591.445 104.346 591.903 103.151 592.694 102.103C593.488 101.047 594.596 100.217 596.018 99.6138C597.44 99.0106 598.788 98.7986 600.063 98.9777C601.341 99.1481 602.479 99.666 603.476 100.532C604.471 101.391 605.258 102.554 605.837 104.022C606.411 105.477 606.636 106.875 606.51 108.217C606.382 109.553 605.921 110.749 605.127 111.806C604.336 112.853 603.23 113.679 601.808 114.282ZM600.622 111.222C601.269 110.948 601.736 110.534 602.023 109.98C602.308 109.42 602.432 108.77 602.396 108.029C602.366 107.286 602.189 106.501 601.862 105.675C601.536 104.849 601.132 104.16 600.651 103.609C600.176 103.054 599.647 102.681 599.066 102.489C598.484 102.296 597.869 102.337 597.223 102.612C596.57 102.889 596.095 103.31 595.798 103.875C595.507 104.437 595.376 105.09 595.406 105.833C595.442 106.574 595.623 107.357 595.949 108.184C596.275 109.01 596.676 109.7 597.151 110.254C597.633 110.806 598.167 111.176 598.755 111.366C599.347 111.547 599.969 111.499 600.622 111.222ZM612.742 115.539L605.031 96.0065L608.876 94.3757L609.817 96.7619L609.991 96.6881C610.011 96.2333 610.105 95.74 610.273 95.2083C610.444 94.6677 610.74 94.1536 611.16 93.6658C611.584 93.1693 612.189 92.7541 612.977 92.4202C614.002 91.9853 615.055 91.8554 616.136 92.0304C617.214 92.1992 618.227 92.7162 619.174 93.5814C620.118 94.4404 620.912 95.6837 621.555 97.3115C622.18 98.8961 622.455 100.341 622.379 101.648C622.307 102.945 621.949 104.058 621.304 104.987C620.662 105.907 619.808 106.593 618.74 107.046C617.983 107.367 617.289 107.514 616.659 107.486C616.034 107.456 615.479 107.321 614.992 107.081C614.503 106.835 614.092 106.552 613.759 106.233L613.64 106.283L616.642 113.885L612.742 115.539ZM611.652 101.49C611.986 102.335 612.392 103.023 612.873 103.553C613.353 104.084 613.882 104.431 614.46 104.597C615.036 104.755 615.638 104.702 616.266 104.435C616.901 104.166 617.369 103.762 617.669 103.224C617.968 102.68 618.105 102.046 618.083 101.321C618.064 100.588 617.892 99.8082 617.565 98.982C617.242 98.1619 616.844 97.4884 616.372 96.9615C615.901 96.4345 615.376 96.0885 614.798 95.9234C614.22 95.7584 613.61 95.8117 612.969 96.0835C612.335 96.3527 611.865 96.7501 611.559 97.2756C611.26 97.7985 611.117 98.4205 611.131 99.1416C611.145 99.8627 611.319 100.646 611.652 101.49ZM626.435 103.512L620.827 89.306L624.544 87.7296L625.533 90.236L625.698 90.1661C625.662 89.2095 625.891 88.3457 626.385 87.5749C626.879 86.804 627.601 86.2167 628.553 85.8129C629.517 85.4039 630.434 85.2993 631.304 85.4991C632.171 85.6927 632.881 86.1547 633.433 86.8851L633.579 86.823C633.545 85.8875 633.807 85.0169 634.365 84.2115C634.927 83.3972 635.724 82.7714 636.755 82.3339C638.067 81.7774 639.299 81.748 640.45 82.2459C641.605 82.735 642.486 83.7502 643.095 85.2917L646.867 94.8454L642.976 96.4956L639.511 87.7187C639.2 86.9295 638.759 86.4256 638.188 86.207C637.617 85.9884 637.021 86.0112 636.398 86.2752C635.69 86.5755 635.228 87.0379 635.011 87.6624C634.792 88.2807 634.829 88.9598 635.121 89.6997L638.546 98.3749L634.765 99.9785L631.268 91.1184C630.993 90.4216 630.575 89.9508 630.015 89.706C629.462 89.4586 628.865 89.4707 628.224 89.7425C627.791 89.9263 627.444 90.203 627.184 90.5725C626.927 90.9332 626.776 91.3536 626.73 91.8337C626.682 92.3075 626.762 92.8065 626.969 93.3306L630.335 101.858L626.435 103.512ZM655.948 91.3171C654.502 91.9305 653.14 92.1626 651.863 92.0134C650.59 91.8553 649.457 91.3497 648.465 90.4966C647.47 89.6372 646.677 88.4584 646.085 86.9601C645.508 85.4988 645.283 84.0973 645.409 82.7555C645.534 81.4137 645.985 80.2183 646.761 79.1695C647.542 78.118 648.623 77.2998 650.002 76.7148C650.93 76.3214 651.853 76.1061 652.772 76.0692C653.694 76.0234 654.572 76.1728 655.406 76.5172C656.247 76.859 657.013 77.4119 657.707 78.1759C658.398 78.9337 658.982 79.9168 659.459 81.1253L659.886 82.2074L648.014 87.2434L647.05 84.8018L655.252 81.3228C655.028 80.7555 654.707 80.3048 654.29 79.9706C653.873 79.6364 653.4 79.4378 652.869 79.375C652.342 79.3034 651.795 79.3879 651.227 79.6287C650.635 79.8798 650.165 80.2411 649.817 80.7127C649.473 81.1756 649.264 81.6925 649.19 82.2637C649.114 82.8287 649.183 83.393 649.399 83.9567L650.315 86.2781C650.593 86.981 650.96 87.5339 651.419 87.937C651.883 88.3374 652.408 88.5754 652.994 88.651C653.579 88.7265 654.198 88.6258 654.851 88.3488C655.285 88.165 655.657 87.9351 655.968 87.6591C656.28 87.3831 656.515 87.0674 656.674 86.712C656.833 86.3567 656.909 85.9717 656.902 85.5572L660.603 84.2678C660.766 85.221 660.692 86.1447 660.383 87.039C660.077 87.9246 659.551 88.7382 658.803 89.4799C658.059 90.2128 657.108 90.8252 655.948 91.3171ZM664.979 77.5747L668.221 85.7874L664.321 87.4415L658.713 73.2357L662.43 71.6592L663.419 74.1656L663.584 74.0957C663.569 73.1375 663.833 72.2626 664.375 71.4711C664.915 70.6733 665.707 70.0532 666.751 69.6105C667.727 69.1964 668.663 69.0511 669.56 69.1746C670.457 69.2982 671.264 69.6753 671.984 70.306C672.7 70.9306 673.277 71.7947 673.712 72.8983L677.283 81.9434L673.384 83.5975L670.09 75.2553C669.753 74.3833 669.266 73.7983 668.628 73.5002C667.988 73.1959 667.277 73.2094 666.496 73.5407C665.971 73.7633 665.552 74.0741 665.24 74.4731C664.933 74.8695 664.753 75.3345 664.7 75.868C664.651 76.3928 664.744 76.9617 664.979 77.5747ZM681.711 63.4804L682.88 66.4399L674.413 70.0315L673.244 67.072L681.711 63.4804ZM673.823 62.8531L677.722 61.1991L682.951 74.443C683.094 74.8068 683.261 75.0671 683.451 75.224C683.639 75.3747 683.847 75.4487 684.073 75.446C684.306 75.4408 684.554 75.3825 684.817 75.2712C685 75.1935 685.177 75.1005 685.348 74.992C685.516 74.8773 685.645 74.79 685.736 74.7301L687.507 77.4018C687.336 77.5463 687.089 77.7337 686.767 77.9639C686.447 78.2004 686.037 78.4353 685.538 78.6686C684.613 79.1043 683.739 79.3273 682.917 79.3378C682.101 79.3457 681.377 79.1273 680.745 78.6825C680.114 78.2378 679.617 77.5486 679.256 76.615L673.823 62.8531Z" fill="#1A1C1E"/>
<rect width="275.123" height="72.9562" rx="36.4781" transform="matrix(0.990672 0.136271 -0.126984 0.991905 667.204 23)" fill="url(#paint3_linear_19_3)"/>
<path d="M696.158 58.7708C696.182 57.9644 695.922 57.2998 695.381 56.7771C694.84 56.2543 694.057 55.9225 693.033 55.7816C692.337 55.6858 691.736 55.7036 691.232 55.8349C690.728 55.9597 690.326 56.1754 690.026 56.4821C689.733 56.7896 689.558 57.1604 689.503 57.5944C689.443 57.9542 689.479 58.2802 689.608 58.5724C689.744 58.8654 689.948 59.1309 690.218 59.3688C690.489 59.6001 690.809 59.8148 691.178 60.0127C691.548 60.2041 691.946 60.3794 692.374 60.5385L694.131 61.2218C694.985 61.5401 695.759 61.9142 696.453 62.3441C697.146 62.774 697.731 63.266 698.208 63.8201C698.686 64.3741 699.03 64.997 699.242 65.6885C699.461 66.381 699.52 67.1485 699.419 67.9911C699.254 69.2263 698.801 70.2547 698.061 71.0762C697.329 71.8921 696.346 72.4695 695.113 72.8084C693.888 73.1417 692.454 73.1954 690.812 72.9696C689.184 72.7455 687.797 72.3006 686.653 71.6346C685.515 70.9696 684.671 70.1008 684.12 69.028C683.576 67.9496 683.381 66.6816 683.534 65.224L687.662 65.7917C687.621 66.4753 687.742 67.0674 688.026 67.568C688.316 68.063 688.736 68.4653 689.284 68.7749C689.84 69.0789 690.486 69.2815 691.221 69.3826C691.944 69.482 692.584 69.4631 693.143 69.3258C693.709 69.1895 694.163 68.9543 694.507 68.6201C694.85 68.286 695.053 67.8756 695.115 67.3891C695.173 66.9354 695.088 66.5355 694.858 66.1895C694.635 65.8443 694.281 65.528 693.797 65.2406C693.319 64.954 692.723 64.6714 692.011 64.3927L689.885 63.5382C688.237 62.89 686.977 62.0577 686.105 61.0411C685.232 60.0245 684.895 58.7704 685.093 57.2788C685.243 56.0549 685.704 55.0312 686.478 54.2075C687.258 53.3848 688.259 52.7965 689.481 52.4427C690.702 52.0888 692.048 52.013 693.519 52.2154C695.017 52.4213 696.291 52.8575 697.341 53.5239C698.399 54.1913 699.181 55.0248 699.688 56.0246C700.194 57.0243 700.381 58.1272 700.246 59.3331L696.158 58.7708ZM707.714 75.3044C706.184 75.094 704.902 74.5865 703.869 73.782C702.843 72.9718 702.103 71.94 701.649 70.6865C701.196 69.4265 701.068 68.0206 701.267 66.4688C701.467 64.904 701.944 63.5779 702.698 62.4906C703.453 61.3968 704.427 60.6007 705.62 60.1024C706.821 59.5985 708.186 59.4517 709.716 59.6622C711.246 59.8727 712.524 60.383 713.55 61.1932C714.583 61.9977 715.326 63.03 715.78 64.29C716.234 65.5435 716.361 66.9527 716.161 68.5176C715.962 70.0693 715.485 71.3921 714.73 72.4859C713.976 73.5732 712.999 74.3688 711.799 74.8727C710.605 75.371 709.244 75.5149 707.714 75.3044ZM708.15 72.0525C708.846 72.1482 709.453 72.0309 709.969 71.7005C710.487 71.3636 710.908 70.8662 711.233 70.2083C711.564 69.5513 711.786 68.7823 711.899 67.9013C712.012 67.0202 711.991 66.2178 711.836 65.4939C711.688 64.771 711.407 64.177 710.992 63.7118C710.577 63.2465 710.022 62.9661 709.326 62.8703C708.623 62.7736 708.006 62.8929 707.475 63.228C706.951 63.5641 706.524 64.0606 706.192 64.7175C705.867 65.3754 705.649 66.1449 705.536 67.026C705.423 67.907 705.441 68.709 705.589 69.4319C705.743 70.1557 706.031 70.7507 706.453 71.2168C706.882 71.6773 707.447 71.9558 708.15 72.0525ZM727.448 62.302L727.044 65.4581L717.706 64.1736L718.11 61.0175L727.448 62.302ZM718.308 76.4607L720.388 60.2168C720.528 59.1188 720.858 58.2375 721.378 57.5729C721.904 56.9093 722.564 56.4481 723.359 56.1895C724.154 55.9308 725.028 55.867 725.98 55.998C726.623 56.0865 727.205 56.2166 727.724 56.3884C728.25 56.5611 728.639 56.705 728.892 56.82L727.739 59.8731C727.582 59.7979 727.384 59.7206 727.147 59.6412C726.917 59.5626 726.677 59.5062 726.427 59.4719C725.81 59.3869 725.361 59.4724 725.081 59.7283C724.802 59.9776 724.63 60.3587 724.564 60.8716L722.495 77.0365L718.308 76.4607ZM737.505 63.6854L737.101 66.8414L727.989 65.5881L728.393 62.432L737.505 63.6854ZM730.926 59.0871L735.123 59.6643L733.315 73.7877C733.265 74.1756 733.285 74.4862 733.376 74.7194C733.467 74.9461 733.612 75.1166 733.811 75.231C734.017 75.3463 734.261 75.4234 734.544 75.4622C734.741 75.4893 734.94 75.5 735.141 75.4942C735.343 75.4818 735.498 75.473 735.605 75.4678L735.865 78.685C735.647 78.7219 735.341 78.7568 734.95 78.7899C734.557 78.8296 734.087 78.8218 733.539 78.7665C732.523 78.6669 731.654 78.4101 730.931 77.9963C730.216 77.5834 729.689 77.0226 729.352 76.3138C729.016 75.6051 728.914 74.7547 729.048 73.7628L730.926 59.0871ZM740.729 79.5447L738.551 63.8292L742.796 64.4132L743.838 74.914L743.975 74.933L747.721 65.0907L751.888 65.6639L753.075 76.1244L753.203 76.1421L756.804 66.34L761.039 66.9226L754.992 81.5067L750.55 80.8956L749.169 71.0105L748.982 70.9848L745.161 80.1544L740.729 79.5447ZM765.061 83.1828C764.096 83.05 763.257 82.764 762.545 82.3248C761.834 81.879 761.3 81.2938 760.945 80.5692C760.598 79.8389 760.488 78.9741 760.616 77.9747C760.724 77.1331 760.969 76.4475 761.35 75.9179C761.732 75.3883 762.211 74.9859 762.788 74.7105C763.365 74.4352 764.002 74.2553 764.702 74.1708C765.407 74.0873 766.139 74.0608 766.897 74.0914C767.789 74.1204 768.509 74.1325 769.057 74.1277C769.607 74.1163 770.014 74.0451 770.278 73.9141C770.542 73.7832 770.694 73.5566 770.735 73.2344L770.743 73.1753C770.823 72.5506 770.688 72.0403 770.338 71.6441C769.994 71.2489 769.464 71.0021 768.748 70.9037C767.993 70.7998 767.371 70.8848 766.881 71.1587C766.393 71.426 766.044 71.7996 765.836 72.2794L761.995 71.43C762.31 70.5366 762.799 69.7943 763.463 69.2031C764.128 68.6053 764.939 68.1884 765.899 67.9524C766.865 67.7106 767.952 67.6729 769.161 67.8391C770.001 67.9547 770.793 68.164 771.536 68.4669C772.286 68.7708 772.933 69.1709 773.478 69.6673C774.029 70.1647 774.437 70.7627 774.701 71.4616C774.967 72.1538 775.042 72.9503 774.927 73.8511L773.619 84.0689L769.639 83.5214L769.908 81.4207L769.79 81.4044C769.486 81.8444 769.108 82.2172 768.654 82.5229C768.202 82.8219 767.677 83.034 767.079 83.1593C766.483 83.278 765.81 83.2858 765.061 83.1828ZM766.634 80.4485C767.252 80.5334 767.812 80.4867 768.316 80.3085C768.821 80.1237 769.235 79.8394 769.558 79.4556C769.881 79.0718 770.077 78.6137 770.145 78.0811L770.351 76.4735C770.209 76.5409 770.018 76.5949 769.779 76.6356C769.547 76.6707 769.286 76.6984 768.996 76.7187C768.707 76.7325 768.419 76.7429 768.13 76.7501C767.843 76.7507 767.582 76.7517 767.348 76.7529C766.846 76.7575 766.401 76.8134 766.013 76.9206C765.626 77.0278 765.312 77.2022 765.074 77.4438C764.837 77.6788 764.693 77.9936 764.643 78.3881C764.57 78.9601 764.72 79.4258 765.095 79.7852C765.478 80.1389 765.991 80.36 766.634 80.4485ZM776.319 84.4404L778.259 69.2913L782.327 69.8509L781.989 72.4941L782.146 72.5157C782.542 71.6134 783.096 70.967 783.808 70.5765C784.52 70.1793 785.3 70.039 786.147 70.1555C786.357 70.1845 786.582 70.2288 786.822 70.2885C787.061 70.3482 787.27 70.4137 787.448 70.4851L786.971 74.2132C786.782 74.1269 786.516 74.0368 786.174 73.9429C785.831 73.849 785.516 73.7822 785.227 73.7424C784.61 73.6575 784.041 73.7164 783.52 73.9192C783.007 74.1162 782.579 74.432 782.236 74.8666C781.9 75.3021 781.692 75.8288 781.613 76.4469L780.516 85.0176L776.319 84.4404ZM793.268 87.0728C791.712 86.8587 790.412 86.3588 789.37 85.5731C788.335 84.7818 787.59 83.7627 787.135 82.5158C786.681 81.2623 786.556 79.8367 786.761 78.2389C786.96 76.6806 787.437 75.3545 788.192 74.2607C788.947 73.1668 789.915 72.3666 791.096 71.8599C792.283 71.3542 793.619 71.2034 795.103 71.4075C796.101 71.5448 797.01 71.8337 797.829 72.2742C798.655 72.7091 799.349 73.2897 799.911 74.016C800.48 74.7432 800.883 75.6149 801.12 76.6311C801.358 77.6408 801.395 78.79 801.23 80.0787L801.082 81.2326L788.306 79.4752L788.64 76.8715L797.466 78.0855C797.543 77.4806 797.48 76.9267 797.278 76.4237C797.075 75.9208 796.757 75.5057 796.324 75.1786C795.899 74.8458 795.381 74.6373 794.77 74.5533C794.133 74.4657 793.55 74.536 793.019 74.7641C792.496 74.9866 792.065 75.3254 791.726 75.7806C791.388 76.2292 791.178 76.7522 791.095 77.3497L790.778 79.8252C790.682 80.5748 790.737 81.2414 790.943 81.8251C791.155 82.4096 791.499 82.8851 791.973 83.2514C792.447 83.6178 793.036 83.8493 793.738 83.9459C794.205 84.0101 794.64 84.003 795.044 83.9248C795.449 83.8466 795.805 83.695 796.115 83.4699C796.424 83.2448 796.676 82.9516 796.869 82.5901L800.717 83.3804C800.401 84.2869 799.892 85.0467 799.193 85.6597C798.5 86.2669 797.65 86.6986 796.641 86.9547C795.64 87.205 794.516 87.2444 793.268 87.0728ZM815.157 90.0837C813.6 89.8696 812.301 89.3697 811.259 88.584C810.224 87.7927 809.479 86.7735 809.024 85.5266C808.57 84.2732 808.445 82.8476 808.649 81.2498C808.849 79.6915 809.326 78.3654 810.081 77.2716C810.836 76.1777 811.804 75.3775 812.984 74.8708C814.172 74.3651 815.508 74.2143 816.992 74.4184C817.99 74.5557 818.899 74.8446 819.718 75.2851C820.544 75.72 821.238 76.3006 821.8 77.0269C822.369 77.7541 822.771 78.6258 823.009 79.642C823.247 80.6517 823.284 81.8009 823.119 83.0896L822.971 84.2435L810.195 82.4861L810.528 79.8824L819.354 81.0964C819.432 80.4915 819.369 79.9376 819.166 79.4346C818.963 78.9317 818.646 78.5166 818.213 78.1895C817.788 77.8566 817.27 77.6482 816.659 77.5642C816.022 77.4766 815.438 77.5469 814.908 77.775C814.385 77.9975 813.954 78.3363 813.615 78.7915C813.277 79.2401 813.066 79.7631 812.983 80.3606L812.666 82.8361C812.57 83.5857 812.625 84.2523 812.831 84.836C813.044 85.4205 813.387 85.896 813.862 86.2623C814.336 86.6287 814.924 86.8602 815.627 86.9568C816.093 87.021 816.529 87.0139 816.933 86.9357C817.337 86.8575 817.694 86.7059 818.004 86.4808C818.313 86.2557 818.564 85.9625 818.758 85.601L822.606 86.3913C822.289 87.2978 821.781 88.0576 821.081 88.6705C820.389 89.2778 819.538 89.7095 818.53 89.9655C817.529 90.2159 816.404 90.2553 815.157 90.0837ZM829.64 82.8626L828.519 91.6206L824.323 91.0434L826.262 75.8943L830.261 76.4444L829.919 79.1172L830.097 79.1416C830.544 78.3066 831.195 77.6869 832.049 77.2824C832.903 76.8714 833.892 76.7431 835.015 76.8976C836.066 77.0421 836.952 77.3982 837.675 77.966C838.397 78.5337 838.921 79.2748 839.245 80.1892C839.569 81.097 839.656 82.1394 839.506 83.3163L838.271 92.962L834.075 92.3848L835.214 83.4887C835.339 82.5625 835.195 81.8067 834.782 81.2213C834.37 80.6294 833.744 80.2756 832.903 80.16C832.338 80.0823 831.824 80.1353 831.359 80.3189C830.901 80.5035 830.521 80.8125 830.218 81.2459C829.923 81.6736 829.73 82.2125 829.64 82.8626ZM847.072 100.275C845.713 100.088 844.571 99.7401 843.647 99.2316C842.729 98.7306 842.025 98.1219 841.536 97.4056C841.046 96.6892 840.767 95.9215 840.698 95.1024L844.646 95.1135C844.725 95.4322 844.876 95.7407 845.099 96.039C845.321 96.3372 845.632 96.5941 846.032 96.8097C846.438 97.0328 846.946 97.1864 847.557 97.2704C848.47 97.3959 849.25 97.2758 849.899 96.91C850.553 96.5517 850.946 95.8531 851.079 94.8142L851.434 92.0428L851.257 92.0184C851.019 92.4139 850.692 92.7738 850.277 93.098C849.861 93.4222 849.349 93.6629 848.741 93.8201C848.132 93.9773 847.428 94.0008 846.627 93.8906C845.491 93.7343 844.49 93.329 843.625 92.6748C842.767 92.0148 842.132 91.1012 841.72 89.9338C841.316 88.7608 841.221 87.336 841.435 85.6593C841.655 83.9432 842.118 82.5482 842.823 81.4743C843.529 80.4005 844.381 79.6412 845.38 79.1965C846.386 78.7528 847.444 78.6072 848.554 78.7599C849.401 78.8764 850.091 79.1186 850.626 79.4865C851.161 79.8478 851.575 80.2661 851.868 80.7414C852.169 81.211 852.389 81.6627 852.527 82.0965L852.685 82.1182L853.01 79.5736L857.177 80.1468L855.219 95.4438C855.054 96.7325 854.6 97.7675 853.859 98.5487C853.117 99.3299 852.161 99.8607 850.989 100.141C849.822 100.429 848.517 100.474 847.072 100.275ZM848.36 90.9175C849.037 91.0105 849.63 90.9214 850.139 90.6502C850.655 90.3734 851.079 89.9365 851.409 89.3396C851.747 88.737 851.973 87.9919 852.086 87.1043C852.2 86.2166 852.174 85.4302 852.007 84.7449C851.842 84.0531 851.546 83.4938 851.12 83.0672C850.693 82.6405 850.142 82.3806 849.465 82.2876C848.776 82.1928 848.171 82.3002 847.65 82.6099C847.13 82.9131 846.706 83.3767 846.379 84.0008C846.052 84.6249 845.833 85.3676 845.723 86.229C845.611 87.1035 845.636 87.8763 845.797 88.5475C845.966 89.2131 846.261 89.7521 846.683 90.1648C847.112 90.5717 847.671 90.8226 848.36 90.9175ZM858.022 95.6789L859.962 80.5298L864.158 81.107L862.218 96.2561L858.022 95.6789ZM862.32 78.867C861.696 78.7811 861.187 78.5004 860.793 78.0247C860.407 77.5434 860.252 77.0102 860.327 76.425C860.401 75.8464 860.684 75.3802 861.177 75.0265C861.678 74.6671 862.24 74.5303 862.864 74.6161C863.488 74.702 863.993 74.9855 864.379 75.4669C864.772 75.9425 864.932 76.4696 864.858 77.0483C864.783 77.6334 864.495 78.1057 863.995 78.4651C863.502 78.8188 862.943 78.9528 862.32 78.867ZM870.343 88.4613L869.221 97.2194L865.025 96.6422L866.965 81.4931L870.964 82.0432L870.622 84.716L870.799 84.7404C871.247 83.9054 871.897 83.2857 872.751 82.8812C873.606 82.4702 874.594 82.3419 875.717 82.4963C876.768 82.6409 877.655 82.997 878.377 83.5648C879.1 84.1325 879.623 84.8736 879.947 85.788C880.272 86.6958 880.359 87.7382 880.208 88.9151L878.973 98.5608L874.777 97.9836L875.916 89.0875C876.041 88.1613 875.897 87.4055 875.484 86.8201C875.072 86.2282 874.446 85.8744 873.606 85.7587C873.041 85.6811 872.526 85.734 872.062 85.9177C871.604 86.1023 871.223 86.4113 870.92 86.8447C870.625 87.2724 870.433 87.8113 870.343 88.4613ZM888.583 100.184C887.027 99.9697 885.728 99.4698 884.685 98.6842C883.651 97.8928 882.906 96.8737 882.451 95.6268C881.996 94.3733 881.871 92.9477 882.076 91.3499C882.275 89.7916 882.753 88.4655 883.507 87.3717C884.262 86.2779 885.23 85.4776 886.411 84.9709C887.598 84.4652 888.934 84.3144 890.418 84.5185C891.416 84.6558 892.325 84.9447 893.144 85.3853C893.971 85.8201 894.665 86.4007 895.227 87.127C895.795 87.8542 896.198 88.7259 896.436 89.7422C896.674 90.7518 896.71 91.901 896.545 93.1897L896.398 94.3437L883.622 92.5863L883.955 89.9825L892.781 91.1966C892.859 90.5917 892.796 90.0377 892.593 89.5347C892.39 89.0318 892.072 88.6167 891.64 88.2896C891.214 87.9568 890.696 87.7484 890.086 87.6644C889.449 87.5767 888.865 87.647 888.335 87.8751C887.812 88.0976 887.381 88.4364 887.042 88.8916C886.704 89.3402 886.493 89.8633 886.41 90.4607L886.093 92.9362C885.997 93.6858 886.052 94.3524 886.258 94.9361C886.47 95.5207 886.814 95.9961 887.288 96.3625C887.763 96.7288 888.351 96.9603 889.054 97.0569C889.52 97.1211 889.955 97.114 890.36 97.0358C890.764 96.9576 891.121 96.806 891.43 96.5809C891.74 96.3559 891.991 96.0626 892.184 95.7011L896.033 96.4914C895.716 97.398 895.208 98.1577 894.508 98.7707C893.815 99.378 892.965 99.8096 891.956 100.066C890.955 100.316 889.831 100.355 888.583 100.184ZM904.607 102.388C903.05 102.174 901.751 101.674 900.709 100.888C899.674 100.097 898.929 99.0778 898.474 97.8309C898.02 96.5774 897.895 95.1518 898.099 93.554C898.299 91.9957 898.776 90.6696 899.531 89.5758C900.286 88.482 901.254 87.6817 902.434 87.175C903.622 86.6693 904.958 86.5185 906.442 86.7226C907.44 86.8599 908.349 87.1488 909.168 87.5894C909.994 88.0242 910.688 88.6048 911.25 89.3311C911.819 90.0583 912.222 90.93 912.459 91.9463C912.697 92.9559 912.734 94.1051 912.569 95.3938L912.421 96.5478L899.645 94.7904L899.979 92.1866L908.805 93.4007C908.882 92.7957 908.819 92.2418 908.616 91.7388C908.413 91.2359 908.096 90.8208 907.663 90.4937C907.238 90.1609 906.72 89.9525 906.109 89.8685C905.472 89.7808 904.889 89.8511 904.358 90.0792C903.835 90.3017 903.404 90.6405 903.065 91.0957C902.727 91.5443 902.517 92.0674 902.433 92.6648L902.116 95.1403C902.02 95.8899 902.075 96.5565 902.281 97.1402C902.494 97.7248 902.837 98.2002 903.312 98.5666C903.786 98.9329 904.375 99.1644 905.077 99.261C905.543 99.3252 905.979 99.3181 906.383 99.2399C906.787 99.1617 907.144 99.0101 907.454 98.785C907.763 98.56 908.015 98.2667 908.208 97.9052L912.056 98.6955C911.74 99.6021 911.231 100.362 910.531 100.975C909.839 101.582 908.988 102.014 907.98 102.27C906.979 102.52 905.854 102.56 904.607 102.388ZM913.773 103.348L915.712 88.1985L919.78 88.7581L919.442 91.4013L919.6 91.423C919.996 90.5207 920.55 89.8743 921.261 89.4837C921.974 89.0866 922.753 88.9463 923.601 89.0628C923.811 89.0917 924.036 89.136 924.275 89.1958C924.515 89.2555 924.724 89.321 924.902 89.3923L924.424 93.1204C924.235 93.0342 923.969 92.9441 923.627 92.8502C923.285 92.7563 922.969 92.6894 922.68 92.6497C922.063 92.5648 921.494 92.6237 920.974 92.8264C920.461 93.0235 920.033 93.3393 919.69 93.7739C919.353 94.2093 919.145 94.7361 919.066 95.3542L917.969 103.925L913.773 103.348Z" fill="#1A1C1E"/>
<rect width="321.869" height="72.8693" rx="36.4346" transform="matrix(0.97198 -0.235062 0.219583 0.975594 1199.15 95.6592)" fill="url(#paint4_linear_19_3)"/>
<path d="M1230.83 135.318L1226.36 115.451L1234.17 113.563C1235.66 113.201 1237 113.161 1238.17 113.442C1239.36 113.716 1240.34 114.273 1241.11 115.116C1241.89 115.95 1242.43 117.024 1242.72 118.337C1243.02 119.656 1242.99 120.86 1242.64 121.947C1242.28 123.029 1241.62 123.952 1240.66 124.716C1239.71 125.479 1238.47 126.045 1236.95 126.413L1231.72 127.677L1230.96 124.301L1235.51 123.2C1236.31 123.007 1236.95 122.737 1237.43 122.389C1237.91 122.041 1238.22 121.617 1238.38 121.114C1238.55 120.611 1238.56 120.032 1238.41 119.379C1238.26 118.72 1238 118.195 1237.64 117.807C1237.28 117.416 1236.81 117.169 1236.22 117.066C1235.64 116.954 1234.94 116.996 1234.14 117.191L1231.31 117.873L1235.01 134.306L1230.83 135.318ZM1239.48 123.692L1246.44 131.543L1241.82 132.66L1234.97 124.784L1239.48 123.692ZM1254.66 129.862C1253.13 130.231 1251.75 130.238 1250.51 129.884C1249.27 129.522 1248.23 128.84 1247.38 127.839C1246.52 126.831 1245.92 125.541 1245.57 123.97C1245.22 122.437 1245.22 121.02 1245.55 119.719C1245.88 118.418 1246.51 117.314 1247.44 116.407C1248.38 115.499 1249.58 114.869 1251.03 114.516C1252.01 114.28 1252.96 114.218 1253.87 114.33C1254.79 114.435 1255.64 114.725 1256.41 115.199C1257.19 115.672 1257.87 116.341 1258.43 117.206C1259 118.065 1259.43 119.128 1259.71 120.395L1259.97 121.53L1247.43 124.562L1246.86 122.001L1255.52 119.907C1255.38 119.312 1255.13 118.816 1254.77 118.419C1254.41 118.022 1253.97 117.75 1253.46 117.602C1252.95 117.446 1252.39 117.44 1251.79 117.585C1251.17 117.736 1250.65 118.016 1250.23 118.423C1249.82 118.823 1249.53 119.298 1249.37 119.849C1249.21 120.393 1249.19 120.96 1249.31 121.55L1249.86 123.985C1250.03 124.722 1250.31 125.326 1250.7 125.798C1251.09 126.267 1251.58 126.587 1252.15 126.756C1252.71 126.926 1253.34 126.927 1254.03 126.761C1254.49 126.65 1254.89 126.484 1255.24 126.263C1255.6 126.041 1255.88 125.769 1256.09 125.445C1256.3 125.121 1256.44 124.754 1256.49 124.344L1260.36 123.676C1260.37 124.641 1260.16 125.539 1259.71 126.369C1259.27 127.191 1258.62 127.907 1257.77 128.516C1256.92 129.117 1255.88 129.566 1254.66 129.862ZM1267.85 126.662C1266.9 126.891 1266.02 126.931 1265.2 126.78C1264.39 126.623 1263.69 126.27 1263.11 125.721C1262.54 125.164 1262.14 124.395 1261.92 123.412C1261.73 122.584 1261.73 121.852 1261.9 121.216C1262.08 120.58 1262.39 120.028 1262.83 119.559C1263.28 119.09 1263.81 118.688 1264.44 118.353C1265.07 118.016 1265.74 117.723 1266.46 117.475C1267.3 117.175 1267.98 116.923 1268.49 116.718C1269 116.506 1269.36 116.29 1269.56 116.071C1269.76 115.852 1269.83 115.583 1269.75 115.267L1269.74 115.208C1269.6 114.594 1269.3 114.165 1268.84 113.923C1268.38 113.678 1267.81 113.641 1267.1 113.811C1266.36 113.99 1265.81 114.297 1265.45 114.733C1265.08 115.163 1264.88 115.64 1264.85 116.166L1260.97 116.776C1260.96 115.824 1261.17 114.95 1261.59 114.153C1262 113.35 1262.62 112.662 1263.43 112.09C1264.25 111.509 1265.26 111.076 1266.44 110.789C1267.27 110.59 1268.08 110.496 1268.88 110.508C1269.68 110.518 1270.42 110.656 1271.1 110.921C1271.78 111.185 1272.37 111.596 1272.85 112.154C1273.34 112.705 1273.68 113.424 1273.88 114.31L1276.14 124.359L1272.24 125.304L1271.77 123.237L1271.66 123.265C1271.52 123.789 1271.3 124.277 1270.98 124.729C1270.66 125.175 1270.24 125.566 1269.72 125.902C1269.21 126.231 1268.58 126.485 1267.85 126.662ZM1268.38 123.525C1268.99 123.379 1269.5 123.13 1269.91 122.778C1270.31 122.42 1270.6 122.003 1270.78 121.525C1270.95 121.047 1270.97 120.546 1270.86 120.022L1270.5 118.441C1270.39 118.557 1270.23 118.677 1270.02 118.803C1269.82 118.92 1269.58 119.042 1269.32 119.167C1269.05 119.286 1268.79 119.401 1268.52 119.513C1268.25 119.619 1268.01 119.716 1267.79 119.802C1267.32 119.99 1266.93 120.206 1266.6 120.448C1266.27 120.691 1266.04 120.969 1265.9 121.282C1265.76 121.589 1265.73 121.936 1265.82 122.325C1265.95 122.887 1266.25 123.268 1266.72 123.467C1267.2 123.659 1267.75 123.678 1268.38 123.525ZM1288.75 110.08L1285.03 111.225C1284.89 110.917 1284.69 110.659 1284.42 110.452C1284.14 110.238 1283.82 110.096 1283.43 110.025C1283.06 109.946 1282.63 109.964 1282.15 110.079C1281.51 110.234 1281.01 110.499 1280.63 110.877C1280.25 111.248 1280.11 111.657 1280.21 112.103C1280.29 112.459 1280.5 112.725 1280.84 112.902C1281.18 113.08 1281.71 113.159 1282.43 113.141L1285.24 113.035C1286.75 112.983 1287.94 113.201 1288.79 113.69C1289.65 114.178 1290.2 114.959 1290.44 116.032C1290.66 117.009 1290.57 117.935 1290.16 118.811C1289.76 119.685 1289.11 120.449 1288.21 121.103C1287.32 121.749 1286.23 122.228 1284.94 122.539C1282.97 123.015 1281.31 122.983 1279.96 122.443C1278.62 121.896 1277.68 120.935 1277.16 119.561L1281.16 118.368C1281.42 118.94 1281.82 119.327 1282.36 119.53C1282.9 119.727 1283.54 119.737 1284.28 119.559C1285 119.385 1285.55 119.105 1285.92 118.721C1286.3 118.329 1286.45 117.909 1286.35 117.461C1286.26 117.088 1286.03 116.819 1285.67 116.654C1285.31 116.483 1284.79 116.411 1284.11 116.438L1281.43 116.545C1279.91 116.605 1278.72 116.361 1277.85 115.815C1276.98 115.267 1276.43 114.437 1276.18 113.325C1275.96 112.367 1276.03 111.481 1276.39 110.664C1276.76 109.846 1277.37 109.135 1278.23 108.533C1279.09 107.929 1280.16 107.473 1281.43 107.166C1283.3 106.713 1284.87 106.754 1286.12 107.289C1287.38 107.822 1288.26 108.753 1288.75 110.08ZM1300.36 118.809C1298.83 119.179 1297.45 119.186 1296.21 118.832C1294.97 118.469 1293.93 117.787 1293.08 116.786C1292.23 115.778 1291.62 114.489 1291.27 112.917C1290.92 111.385 1290.92 109.968 1291.25 108.667C1291.58 107.366 1292.21 106.262 1293.14 105.355C1294.08 104.446 1295.28 103.816 1296.73 103.464C1297.71 103.227 1298.66 103.165 1299.58 103.278C1300.5 103.383 1301.34 103.672 1302.11 104.147C1302.89 104.62 1303.57 105.289 1304.14 106.154C1304.7 107.012 1305.13 108.075 1305.41 109.343L1305.67 110.478L1293.13 113.509L1292.56 110.948L1301.22 108.854C1301.08 108.259 1300.84 107.763 1300.48 107.367C1300.11 106.97 1299.68 106.697 1299.16 106.549C1298.65 106.393 1298.09 106.388 1297.5 106.532C1296.87 106.684 1296.35 106.963 1295.93 107.371C1295.52 107.771 1295.23 108.246 1295.07 108.796C1294.91 109.34 1294.89 109.907 1295.01 110.498L1295.56 112.932C1295.73 113.67 1296.01 114.274 1296.4 114.745C1296.8 115.215 1297.28 115.535 1297.85 115.704C1298.42 115.874 1299.04 115.875 1299.73 115.708C1300.19 115.598 1300.6 115.432 1300.95 115.21C1301.3 114.989 1301.58 114.716 1301.79 114.392C1302 114.068 1302.14 113.701 1302.2 113.292L1306.06 112.623C1306.07 113.588 1305.86 114.486 1305.41 115.317C1304.97 116.139 1304.33 116.855 1303.47 117.464C1302.62 118.065 1301.58 118.513 1300.36 118.809ZM1313.55 115.61C1312.6 115.839 1311.72 115.878 1310.9 115.728C1310.09 115.571 1309.39 115.218 1308.81 114.669C1308.24 114.112 1307.84 113.342 1307.62 112.359C1307.43 111.531 1307.43 110.8 1307.6 110.164C1307.78 109.528 1308.09 108.975 1308.53 108.506C1308.98 108.037 1309.51 107.635 1310.14 107.3C1310.77 106.964 1311.44 106.671 1312.16 106.422C1313.01 106.123 1313.68 105.871 1314.19 105.665C1314.7 105.453 1315.06 105.238 1315.26 105.018C1315.46 104.799 1315.53 104.531 1315.46 104.214L1315.44 104.156C1315.3 103.542 1315 103.113 1314.54 102.87C1314.09 102.626 1313.51 102.589 1312.8 102.758C1312.06 102.938 1311.51 103.245 1311.15 103.681C1310.78 104.11 1310.58 104.588 1310.55 105.113L1306.68 105.724C1306.66 104.772 1306.87 103.897 1307.29 103.101C1307.7 102.297 1308.32 101.61 1309.14 101.037C1309.96 100.457 1310.96 100.024 1312.15 99.7368C1312.97 99.5374 1313.78 99.4435 1314.58 99.4552C1315.38 99.4654 1316.12 99.6033 1316.8 99.8689C1317.49 100.133 1318.07 100.544 1318.56 101.101C1319.04 101.653 1319.38 102.371 1319.58 103.257L1321.84 113.307L1317.94 114.251L1317.47 112.185L1317.36 112.213C1317.22 112.736 1317 113.224 1316.68 113.676C1316.36 114.122 1315.94 114.513 1315.42 114.849C1314.91 115.179 1314.28 115.432 1313.55 115.61ZM1314.08 112.473C1314.69 112.326 1315.2 112.077 1315.61 111.726C1316.02 111.368 1316.31 110.95 1316.48 110.472C1316.65 109.995 1316.67 109.494 1316.56 108.97L1316.2 107.389C1316.09 107.504 1315.93 107.625 1315.72 107.75C1315.52 107.868 1315.28 107.989 1315.02 108.114C1314.75 108.233 1314.49 108.349 1314.22 108.461C1313.95 108.567 1313.71 108.663 1313.49 108.75C1313.02 108.938 1312.63 109.153 1312.3 109.396C1311.98 109.638 1311.74 109.916 1311.6 110.23C1311.46 110.537 1311.43 110.884 1311.52 111.272C1311.65 111.835 1311.95 112.216 1312.42 112.415C1312.9 112.606 1313.45 112.626 1314.08 112.473ZM1324.49 112.666L1321.14 97.7661L1325.13 96.8008L1325.72 99.4006L1325.87 99.3632C1325.93 98.373 1326.23 97.5647 1326.76 96.9383C1327.29 96.3055 1327.97 95.8886 1328.8 95.6876C1329.01 95.6377 1329.24 95.5969 1329.48 95.5651C1329.72 95.5333 1329.94 95.5183 1330.13 95.5199L1330.96 99.1867C1330.75 99.1752 1330.47 99.1882 1330.12 99.2255C1329.77 99.2628 1329.45 99.3157 1329.17 99.3843C1328.56 99.5307 1328.05 99.7942 1327.63 100.175C1327.22 100.547 1326.93 101 1326.76 101.532C1326.59 102.063 1326.58 102.633 1326.71 103.241L1328.61 111.67L1324.49 112.666ZM1341.17 108.941C1339.65 109.308 1338.27 109.301 1337.02 108.92C1335.79 108.53 1334.75 107.827 1333.9 106.811C1333.06 105.794 1332.47 104.532 1332.13 103.025C1331.79 101.499 1331.78 100.089 1332.11 98.7962C1332.44 97.4952 1333.08 96.3897 1334.02 95.4797C1334.96 94.5632 1336.18 93.9234 1337.68 93.5604C1338.98 93.2472 1340.17 93.209 1341.25 93.4458C1342.33 93.6826 1343.24 94.1593 1344 94.8758C1344.76 95.5923 1345.3 96.5191 1345.62 97.6562L1341.73 98.5958C1341.46 97.8786 1341.03 97.3505 1340.46 97.0116C1339.89 96.6646 1339.23 96.5823 1338.48 96.7646C1337.84 96.9188 1337.32 97.2282 1336.92 97.6927C1336.53 98.1492 1336.28 98.7393 1336.16 99.4628C1336.04 100.186 1336.09 101.017 1336.3 101.955C1336.52 102.905 1336.83 103.682 1337.24 104.286C1337.65 104.888 1338.13 105.307 1338.69 105.54C1339.25 105.774 1339.84 105.814 1340.48 105.66C1340.95 105.546 1341.35 105.347 1341.68 105.063C1342.02 104.777 1342.27 104.42 1342.43 103.992C1342.59 103.556 1342.66 103.067 1342.62 102.525L1346.5 101.585C1346.69 102.739 1346.61 103.816 1346.25 104.816C1345.9 105.809 1345.29 106.665 1344.43 107.383C1343.58 108.102 1342.49 108.621 1341.17 108.941ZM1352 96.9307L1353.94 105.545L1349.82 106.54L1345.35 86.6738L1349.35 85.7062L1351.06 93.3017L1351.24 93.2596C1351.37 92.2991 1351.76 91.4795 1352.39 90.8008C1353.03 90.1156 1353.91 89.6367 1355.04 89.364C1356.07 89.1147 1357.02 89.1236 1357.89 89.3909C1358.76 89.6502 1359.5 90.1487 1360.12 90.8866C1360.74 91.6164 1361.18 92.5642 1361.43 93.7298L1363.57 103.217L1359.45 104.213L1357.48 95.4627C1357.28 94.5428 1356.89 93.8843 1356.3 93.4872C1355.72 93.0885 1355.01 92.9904 1354.18 93.1929C1353.62 93.3285 1353.15 93.5681 1352.77 93.9118C1352.4 94.2539 1352.14 94.6842 1352 95.2025C1351.86 95.7129 1351.86 96.2889 1352 96.9307ZM1386.65 84.0198L1382.42 85.0435C1382.22 84.5125 1381.95 84.0624 1381.62 83.6932C1381.28 83.3176 1380.89 83.023 1380.45 82.8094C1380.01 82.5958 1379.52 82.4674 1379 82.4242C1378.48 82.3794 1377.93 82.4255 1377.37 82.5626C1376.34 82.8104 1375.51 83.2816 1374.86 83.9764C1374.21 84.6647 1373.79 85.5445 1373.59 86.6158C1373.39 87.6807 1373.44 88.9019 1373.75 90.2793C1374.07 91.6956 1374.55 92.8349 1375.18 93.6972C1375.83 94.5579 1376.58 95.1421 1377.45 95.4497C1378.32 95.7574 1379.26 95.7904 1380.26 95.5489C1380.82 95.4134 1381.32 95.2135 1381.76 94.9495C1382.21 94.6839 1382.59 94.3636 1382.9 93.9887C1383.21 93.6073 1383.44 93.1801 1383.59 92.707C1383.75 92.2323 1383.82 91.7182 1383.8 91.1645L1388.03 90.1602C1388.13 91.0985 1388.05 92.0442 1387.81 92.9974C1387.56 93.9425 1387.15 94.8369 1386.57 95.6806C1385.99 96.5164 1385.23 97.2505 1384.31 97.8832C1383.39 98.5078 1382.3 98.9736 1381.03 99.2806C1379.26 99.7075 1377.59 99.6883 1376.02 99.223C1374.45 98.7561 1373.1 97.8601 1371.95 96.5352C1370.81 95.2086 1370 93.4654 1369.51 91.3054C1369.02 89.1389 1369.01 87.1977 1369.48 85.4816C1369.95 83.7655 1370.79 82.3415 1372.01 81.2095C1373.22 80.071 1374.69 79.2914 1376.43 78.8707C1377.58 78.5933 1378.68 78.4979 1379.73 78.5844C1380.79 78.6694 1381.77 78.9303 1382.67 79.3673C1383.57 79.7978 1384.36 80.4016 1385.03 81.1788C1385.72 81.9544 1386.26 82.9013 1386.65 84.0198ZM1398.71 95.0247C1397.21 95.3877 1395.84 95.3816 1394.6 95.0063C1393.36 94.6229 1392.32 93.9273 1391.47 92.9195C1390.62 91.9053 1390.02 90.6351 1389.67 89.1089C1389.33 87.5697 1389.32 86.1529 1389.65 84.8584C1389.99 83.5575 1390.63 82.4552 1391.57 81.5517C1392.52 80.6401 1393.75 80.0027 1395.25 79.6397C1396.75 79.2766 1398.12 79.2868 1399.35 79.6702C1400.59 80.0455 1401.64 80.7403 1402.49 81.7545C1403.34 82.7623 1403.94 84.0358 1404.29 85.5749C1404.63 87.1011 1404.64 88.5147 1404.3 89.8157C1403.97 91.1101 1403.33 92.2132 1402.38 93.1248C1401.43 94.0283 1400.21 94.6616 1398.71 95.0247ZM1398.01 91.8189C1398.69 91.6537 1399.22 91.3218 1399.59 90.8231C1399.96 90.318 1400.18 89.6979 1400.26 88.9628C1400.35 88.2261 1400.29 87.4244 1400.1 86.5579C1399.9 85.6913 1399.61 84.9473 1399.22 84.3259C1398.83 83.703 1398.37 83.2496 1397.82 82.9657C1397.27 82.6819 1396.66 82.6225 1395.98 82.7877C1395.29 82.9544 1394.75 83.2919 1394.37 83.8001C1393.99 84.3068 1393.76 84.9285 1393.68 85.6652C1393.6 86.4003 1393.66 87.2011 1393.85 88.0677C1394.05 88.9343 1394.34 89.6791 1394.72 90.302C1395.11 90.9234 1395.59 91.3752 1396.14 91.6575C1396.7 91.9318 1397.32 91.9856 1398.01 91.8189ZM1410.26 82.8412L1412.2 91.4552L1408.08 92.4509L1404.73 77.5509L1408.65 76.602L1409.25 79.2308L1409.42 79.1888C1409.55 78.2427 1409.95 77.424 1410.61 76.7326C1411.27 76.0347 1412.15 75.5526 1413.25 75.2861C1414.28 75.0368 1415.23 75.0458 1416.1 75.313C1416.97 75.5803 1417.71 76.0829 1418.32 76.8208C1418.94 77.5522 1419.37 78.4967 1419.63 79.6543L1421.77 89.1413L1417.65 90.137L1415.68 81.3872C1415.48 80.4738 1415.09 79.8185 1414.51 79.4213C1413.92 79.0177 1413.21 78.9156 1412.39 79.1151C1411.83 79.2491 1411.37 79.4872 1411 79.8293C1410.64 80.1698 1410.39 80.5985 1410.25 81.1153C1410.12 81.6241 1410.12 82.1994 1410.26 82.8412ZM1434.42 74.8501L1430.71 75.9944C1430.57 75.6866 1430.36 75.4291 1430.09 75.2219C1429.82 75.0081 1429.49 74.8657 1429.11 74.7947C1428.73 74.7156 1428.31 74.7337 1427.83 74.849C1427.19 75.0033 1426.68 75.2692 1426.31 75.6467C1425.93 76.0178 1425.79 76.4265 1425.89 76.8727C1425.97 77.2284 1426.18 77.4949 1426.52 77.672C1426.86 77.8492 1427.39 77.9288 1428.11 77.9108L1430.92 77.8043C1432.43 77.7528 1433.61 77.9711 1434.47 78.4593C1435.33 78.9476 1435.88 79.7285 1436.12 80.802C1436.34 81.7785 1436.25 82.7047 1435.84 83.5806C1435.44 84.455 1434.79 85.2191 1433.89 85.8729C1432.99 86.5188 1431.9 86.9975 1430.61 87.3091C1428.65 87.7844 1426.99 87.7523 1425.64 87.2131C1424.29 86.6658 1423.36 85.7049 1422.84 84.3305L1426.84 83.1377C1427.1 83.7096 1427.5 84.097 1428.04 84.3002C1428.58 84.4968 1429.22 84.5064 1429.95 84.3287C1430.67 84.1542 1431.22 83.8749 1431.6 83.4909C1431.98 83.0988 1432.12 82.6789 1432.03 82.2311C1431.94 81.8576 1431.71 81.5886 1431.35 81.4241C1430.98 81.2532 1430.46 81.1809 1429.79 81.2074L1427.1 81.315C1425.59 81.3746 1424.4 81.1311 1423.53 80.5847C1422.66 80.0367 1422.1 79.2065 1421.85 78.0942C1421.64 77.1371 1421.71 76.2502 1422.07 75.4336C1422.44 74.6154 1423.05 73.905 1423.9 73.3025C1424.77 72.6983 1425.83 72.2428 1427.1 71.9358C1428.98 71.4824 1430.54 71.5233 1431.8 72.0585C1433.06 72.5922 1433.93 73.5227 1434.42 74.8501ZM1447.3 76.2777L1445.37 67.7219L1449.49 66.7262L1452.84 81.6262L1448.89 82.5821L1448.28 79.8757L1448.13 79.9131C1447.99 80.8672 1447.59 81.7036 1446.93 82.4225C1446.27 83.1397 1445.39 83.6331 1444.28 83.9027C1443.28 84.1427 1442.36 84.1275 1441.5 83.8571C1440.65 83.5867 1439.91 83.0858 1439.3 82.3544C1438.69 81.6214 1438.26 80.6737 1437.99 79.5112L1435.85 70.0241L1439.97 69.0284L1441.94 77.7783C1442.14 78.6562 1442.54 79.2946 1443.11 79.6933C1443.69 80.092 1444.37 80.1971 1445.15 80.0085C1445.65 79.8885 1446.09 79.6632 1446.47 79.3324C1446.85 78.9952 1447.12 78.5683 1447.28 78.0518C1447.45 77.5336 1447.45 76.9423 1447.3 76.2777ZM1455.24 60.0991L1459.71 79.9657L1455.59 80.9614L1451.12 61.0948L1455.24 60.0991ZM1467.01 62.4903L1467.7 65.5944L1458.76 67.7564L1458.07 64.6522L1467.01 62.4903ZM1459.29 60.5916L1463.41 59.5959L1466.54 73.4871C1466.62 73.8686 1466.75 74.1521 1466.91 74.3374C1467.07 74.5163 1467.27 74.6229 1467.49 74.6571C1467.72 74.6898 1467.98 74.6726 1468.25 74.6056C1468.45 74.5588 1468.64 74.4959 1468.82 74.4168C1469.01 74.3313 1469.15 74.2664 1469.25 74.222L1470.59 77.1405C1470.4 77.255 1470.12 77.3995 1469.77 77.574C1469.42 77.7549 1468.97 77.9197 1468.44 78.0684C1467.46 78.3472 1466.56 78.425 1465.74 78.3018C1464.93 78.177 1464.25 77.8444 1463.7 77.3039C1463.14 76.7633 1462.75 76.004 1462.54 75.026L1459.29 60.5916ZM1476.79 76.1309C1475.85 76.3599 1474.96 76.3991 1474.15 76.2485C1473.33 76.0914 1472.64 75.7385 1472.06 75.1897C1471.48 74.6329 1471.09 73.863 1470.86 72.88C1470.68 72.0523 1470.67 71.3204 1470.85 70.6846C1471.03 70.0487 1471.34 69.4963 1471.78 69.0273C1472.23 68.5584 1472.76 68.1563 1473.38 67.8212C1474.01 67.4846 1474.69 67.1919 1475.41 66.9431C1476.25 66.6438 1476.93 66.3914 1477.44 66.186C1477.95 65.9742 1478.3 65.7586 1478.51 65.5393C1478.71 65.32 1478.77 65.0519 1478.7 64.735L1478.69 64.6768C1478.55 64.0624 1478.25 63.6338 1477.79 63.391C1477.33 63.1467 1476.75 63.1094 1476.05 63.2793C1475.31 63.4585 1474.76 63.7659 1474.39 64.2017C1474.03 64.631 1473.83 65.1086 1473.8 65.6343L1469.92 66.2448C1469.91 65.2927 1470.11 64.4182 1470.53 63.6215C1470.95 62.8183 1471.57 62.1305 1472.38 61.5582C1473.2 60.9779 1474.21 60.5444 1475.39 60.2577C1476.22 60.0583 1477.03 59.9644 1477.82 59.9761C1478.63 59.9863 1479.37 60.1241 1480.05 60.3898C1480.73 60.6538 1481.32 61.0647 1481.8 61.6224C1482.29 62.1735 1482.63 62.8921 1482.83 63.7781L1485.09 73.8278L1481.19 74.7721L1480.72 72.7059L1480.6 72.7339C1480.47 73.2572 1480.24 73.745 1479.92 74.1973C1479.6 74.6431 1479.19 75.034 1478.67 75.3701C1478.15 75.6996 1477.53 75.9532 1476.79 76.1309ZM1477.33 72.9938C1477.94 72.8473 1478.44 72.5983 1478.85 72.2469C1479.26 71.8889 1479.55 71.4711 1479.72 70.9933C1479.89 70.5155 1479.92 70.0147 1479.8 69.4909L1479.45 67.9097C1479.34 68.025 1479.18 68.1454 1478.97 68.2711C1478.76 68.3887 1478.53 68.5102 1478.27 68.6354C1478 68.7541 1477.73 68.8696 1477.47 68.9819C1477.2 69.0877 1476.96 69.184 1476.74 69.2709C1476.27 69.4589 1475.87 69.6741 1475.55 69.9166C1475.22 70.1591 1474.99 70.437 1474.85 70.7505C1474.71 71.0575 1474.68 71.405 1474.77 71.793C1474.89 72.3556 1475.19 72.7366 1475.67 72.9359C1476.14 73.1272 1476.7 73.1465 1477.33 72.9938ZM1489.92 63.5773L1491.86 72.1913L1487.74 73.187L1484.39 58.287L1488.31 57.3381L1488.9 59.9669L1489.08 59.9248C1489.21 58.9788 1489.61 58.1601 1490.27 57.4687C1490.92 56.7708 1491.8 56.2886 1492.91 56.0222C1493.94 55.7729 1494.89 55.7819 1495.75 56.0491C1496.62 56.3164 1497.36 56.819 1497.98 57.5568C1498.59 58.2882 1499.03 59.2327 1499.29 60.3903L1501.42 69.8774L1497.31 70.8731L1495.34 62.1232C1495.14 61.2098 1494.75 60.5546 1494.16 60.1574C1493.58 59.7538 1492.87 59.6517 1492.04 59.8512C1491.49 59.9852 1491.03 60.2232 1490.66 60.5653C1490.29 60.9059 1490.04 61.3346 1489.91 61.8514C1489.78 62.3602 1489.78 62.9355 1489.92 63.5773ZM1508.67 52.4148L1509.37 55.519L1500.43 57.6809L1499.73 54.5768L1508.67 52.4148ZM1500.95 50.5162L1505.07 49.5205L1508.2 63.4116C1508.28 63.7932 1508.41 64.0766 1508.57 64.262C1508.73 64.4409 1508.93 64.5474 1509.15 64.5816C1509.39 64.6143 1509.64 64.5971 1509.92 64.5301C1510.11 64.4834 1510.3 64.4205 1510.49 64.3414C1510.67 64.2558 1510.81 64.1909 1510.91 64.1466L1512.25 67.065C1512.06 67.1796 1511.79 67.324 1511.43 67.4985C1511.08 67.6794 1510.64 67.8442 1510.11 67.993C1509.12 68.2717 1508.22 68.3495 1507.41 68.2263C1506.6 68.1015 1505.91 67.7689 1505.36 67.2284C1504.8 66.6879 1504.42 65.9286 1504.2 64.9505L1500.95 50.5162Z" fill="#1A1C1E"/>
<rect width="170.495" height="72.717" rx="36.3585" transform="matrix(0.938632 -0.344921 0.3236 0.946194 916.485 58.8075)" fill="url(#paint5_linear_19_3)"/>
<path d="M949.68 73.9148L956.27 93.1827L952.229 94.6677L945.639 75.3998L949.68 73.9148ZM960.113 82.366L962.97 90.7205L958.994 92.1815L954.052 77.7305L957.841 76.3381L958.713 78.8877L958.881 78.826C958.911 77.8689 959.216 77.0086 959.795 76.245C960.372 75.4751 961.193 74.8947 962.257 74.5037C963.252 74.1379 964.195 74.0385 965.086 74.2054C965.977 74.3724 966.767 74.7881 967.456 75.4526C968.144 76.1108 968.679 77.0013 969.063 78.124L972.21 87.3252L968.234 88.7862L965.332 80.3C965.036 79.4134 964.576 78.8057 963.952 78.4771C963.326 78.1423 962.615 78.1212 961.819 78.4138C961.284 78.6105 960.85 78.9003 960.519 79.2832C960.194 79.6639 959.993 80.1192 959.915 80.6491C959.841 81.1705 959.907 81.7428 960.113 82.366ZM977.501 69.1139L978.53 72.1245L969.897 75.2969L968.868 72.2863L977.501 69.1139ZM969.644 68.1038L973.619 66.6428L978.227 80.1153C978.354 80.4854 978.508 80.7533 978.691 80.9192C978.872 81.0787 979.075 81.1627 979.302 81.171C979.536 81.1771 979.786 81.131 980.054 81.0327C980.24 80.9641 980.422 80.8798 980.597 80.7799C980.771 80.6737 980.905 80.5928 980.998 80.5374L982.643 83.2901C982.465 83.4259 982.21 83.601 981.877 83.8151C981.546 84.0355 981.126 84.25 980.616 84.4586C979.671 84.8484 978.787 85.0284 977.964 84.9989C977.148 84.967 976.434 84.7138 975.824 84.2392C975.213 83.7646 974.749 83.0526 974.431 82.1032L969.644 68.1038ZM990.983 80.7444C989.508 81.2863 988.136 81.4516 986.866 81.2405C985.6 81.0208 984.491 80.461 983.539 79.5612C982.585 78.6551 981.847 77.44 981.326 75.9159C980.818 74.4294 980.658 73.0196 980.846 71.6865C981.035 70.3535 981.541 69.1824 982.366 68.1734C983.196 67.1621 984.315 66.398 985.721 65.8813C986.667 65.5338 987.6 65.3639 988.52 65.3717C989.444 65.371 990.315 65.5628 991.133 65.9471C991.957 66.3291 992.698 66.9183 993.355 67.7145C994.011 68.5045 994.549 69.5142 994.969 70.7435L995.346 71.8443L983.241 76.2925L982.391 73.8087L990.754 70.7358C990.556 70.1587 990.257 69.6933 989.856 69.3394C989.455 68.9856 988.99 68.7644 988.463 68.6758C987.939 68.5787 987.388 68.6365 986.81 68.8491C986.206 69.0709 985.719 69.4086 985.349 69.8624C984.983 70.3075 984.75 70.8133 984.649 71.3798C984.547 71.9399 984.59 72.5065 984.779 73.0796L985.587 75.441C985.831 76.1561 986.173 76.7259 986.612 77.1504C987.058 77.5727 987.572 77.8358 988.154 77.9397C988.735 78.0436 989.359 77.9732 990.025 77.7286C990.467 77.5662 990.85 77.3549 991.174 77.0946C991.498 76.8342 991.748 76.5306 991.923 76.1837C992.099 75.8368 992.193 75.4563 992.205 75.0422L995.966 73.9355C996.084 74.8948 995.968 75.8131 995.616 76.6906C995.269 77.5595 994.705 78.3459 993.923 79.0498C993.145 79.7451 992.165 80.31 990.983 80.7444ZM999.535 77.284L994.593 62.833L998.447 61.4166L999.31 63.938L999.459 63.8831C999.413 62.8902 999.62 62.0516 1000.08 61.3674C1000.54 60.6769 1001.17 60.1841 1001.97 59.8892C1002.17 59.816 1002.39 59.7497 1002.63 59.6902C1002.87 59.6307 1003.08 59.5909 1003.27 59.5708L1004.48 63.127C1004.28 63.1392 1004 63.1839 1003.66 63.2612C1003.31 63.3384 1003 63.4274 1002.73 63.528C1002.15 63.7429 1001.67 64.0635 1001.29 64.4899C1000.93 64.9077 1000.69 65.3915 1000.57 65.9414C1000.47 66.4891 1000.51 67.0577 1000.71 67.6473L1003.51 75.823L999.535 77.284ZM1010.88 63.7099L1013.74 72.0643L1009.76 73.5254L1004.82 59.0744L1008.61 57.682L1009.48 60.2316L1009.65 60.1699C1009.68 59.2128 1009.98 58.3524 1010.56 57.5889C1011.14 56.819 1011.96 56.2386 1013.03 55.8476C1014.02 55.4818 1014.96 55.3823 1015.85 55.5493C1016.75 55.7163 1017.54 56.132 1018.22 56.7965C1018.91 57.4547 1019.45 58.3451 1019.83 59.4678L1022.98 68.669L1019 70.13L1016.1 61.6439C1015.8 60.7572 1015.34 60.1496 1014.72 59.821C1014.1 59.4861 1013.38 59.465 1012.59 59.7577C1012.05 59.9543 1011.62 60.2441 1011.29 60.6271C1010.96 61.0078 1010.76 61.4631 1010.68 61.993C1010.61 62.5144 1010.68 63.0866 1010.88 63.7099ZM1033.98 52.9975L1030.42 54.5608C1030.25 54.2701 1030.02 54.037 1029.73 53.8615C1029.43 53.6798 1029.09 53.5754 1028.71 53.5484C1028.32 53.5128 1027.9 53.5795 1027.44 53.7487C1026.82 53.9751 1026.35 54.2977 1026.02 54.7166C1025.68 55.1293 1025.59 55.552 1025.74 55.9847C1025.85 56.3297 1026.09 56.5711 1026.45 56.7088C1026.8 56.8465 1027.34 56.8652 1028.05 56.7648L1030.83 56.3382C1032.32 56.1146 1033.52 56.1969 1034.42 56.5852C1035.32 56.9734 1035.95 57.6881 1036.31 58.7293C1036.63 59.6764 1036.64 60.6092 1036.33 61.5277C1036.03 62.4439 1035.47 63.2788 1034.65 64.0323C1033.83 64.7773 1032.8 65.3784 1031.55 65.8357C1029.66 66.5331 1028.01 66.6904 1026.61 66.3077C1025.21 65.9164 1024.19 65.0662 1023.52 63.7573L1027.36 62.1133C1027.68 62.6531 1028.12 62.9933 1028.68 63.1337C1029.23 63.2679 1029.87 63.2046 1030.58 62.944C1031.27 62.6879 1031.79 62.3473 1032.12 61.9221C1032.45 61.4883 1032.55 61.0539 1032.41 60.6189C1032.28 60.2574 1032.02 60.0155 1031.64 59.8932C1031.26 59.7646 1030.74 59.7519 1030.08 59.8551L1027.42 60.2687C1025.93 60.5009 1024.72 60.3947 1023.79 59.95C1022.88 59.503 1022.24 58.7401 1021.87 57.6613C1021.55 56.733 1021.52 55.8418 1021.79 54.9878C1022.07 54.1315 1022.6 53.3545 1023.38 52.6569C1024.17 51.9571 1025.18 51.3819 1026.4 50.9315C1028.21 50.2661 1029.77 50.1283 1031.07 50.5179C1032.38 50.9053 1033.35 51.7318 1033.98 52.9975ZM1040.94 52.6653L1043.79 61.0197L1039.82 62.4808L1033.23 43.2128L1037.09 41.7929L1039.61 49.1595L1039.78 49.0978C1039.81 48.1259 1040.11 47.2659 1040.66 46.5177C1041.22 45.7632 1042.04 45.186 1043.13 44.7858C1044.12 44.42 1045.07 44.3206 1045.96 44.4876C1046.85 44.646 1047.64 45.0574 1048.33 45.7219C1049.03 46.3778 1049.56 47.2714 1049.94 48.4026L1053.09 57.6038L1049.11 59.0649L1046.21 50.5787C1045.91 49.6858 1045.45 49.075 1044.83 48.7464C1044.21 48.4155 1043.5 48.3987 1042.69 48.6959C1042.15 48.8949 1041.71 49.1869 1041.37 49.5722C1041.04 49.9552 1040.83 50.4128 1040.75 50.945C1040.67 51.4686 1040.73 52.0421 1040.94 52.6653ZM1055.69 56.6472L1050.75 42.1963L1054.73 40.7352L1059.67 55.1862L1055.69 56.6472ZM1052.11 39.5995C1051.52 39.8167 1050.95 39.8055 1050.39 39.5658C1049.83 39.3176 1049.46 38.9144 1049.27 38.3561C1049.08 37.8042 1049.13 37.2541 1049.41 36.7057C1049.7 36.1488 1050.13 35.7618 1050.72 35.5446C1051.32 35.3274 1051.89 35.3429 1052.44 35.5911C1053 35.8308 1053.37 36.2266 1053.56 36.7785C1053.75 37.3367 1053.71 37.8943 1053.42 38.4512C1053.14 38.9995 1052.7 39.3823 1052.11 39.5995ZM1064.18 59.6281L1057.39 39.758L1061.31 38.3176L1062.14 40.7449L1062.31 40.6797C1062.36 40.2269 1062.47 39.7391 1062.66 39.2165C1062.86 38.6854 1063.18 38.1866 1063.62 37.7203C1064.07 37.2454 1064.7 36.8605 1065.5 36.5655C1066.54 36.1814 1067.6 36.103 1068.67 36.3303C1069.74 36.5513 1070.73 37.1166 1071.64 38.0261C1072.54 38.9294 1073.28 40.2089 1073.84 41.8648C1074.4 43.4767 1074.6 44.9326 1074.47 46.2326C1074.33 47.524 1073.92 48.6174 1073.24 49.5128C1072.55 50.3997 1071.66 51.0432 1070.58 51.4433C1069.8 51.7268 1069.1 51.8394 1068.47 51.7812C1067.85 51.7207 1067.3 51.5589 1066.83 51.2957C1066.35 51.0263 1065.95 50.7241 1065.63 50.389L1065.51 50.4336L1068.16 58.1671L1064.18 59.6281ZM1063.75 45.5534C1064.04 46.4127 1064.42 47.1187 1064.87 47.6716C1065.33 48.2245 1065.84 48.5974 1066.41 48.7902C1066.98 48.9769 1067.58 48.9524 1068.22 48.7169C1068.87 48.4791 1069.36 48.0992 1069.68 47.577C1070.01 47.0486 1070.18 46.4223 1070.19 45.6979C1070.2 44.965 1070.07 44.1783 1069.78 43.3378C1069.49 42.5036 1069.13 41.8121 1068.68 41.2632C1068.23 40.7143 1067.72 40.3434 1067.15 40.1506C1066.58 39.9577 1065.97 39.9813 1065.32 40.2213C1064.67 40.4591 1064.18 40.8328 1063.85 41.3424C1063.53 41.8497 1063.36 42.4635 1063.34 43.1839C1063.32 43.9043 1063.46 44.6941 1063.75 45.5534Z" fill="#1A1C1E"/>
<rect width="186.927" height="72.7303" rx="36.3652" transform="matrix(0.941581 0.336785 -0.315848 0.94881 1063.91 20)" fill="url(#paint6_linear_19_3)"/>
<path d="M1091.03 64.4931L1086.93 63.0264C1087.04 62.465 1087.04 61.9354 1086.95 61.4377C1086.86 60.9337 1086.68 60.4692 1086.42 60.0441C1086.15 59.619 1085.81 59.243 1085.39 58.9161C1084.97 58.5914 1084.49 58.3309 1083.94 58.1344C1082.95 57.7795 1082 57.7187 1081.1 57.9521C1080.2 58.1793 1079.39 58.692 1078.67 59.4903C1077.95 60.2823 1077.37 61.3482 1076.93 62.6878C1076.47 64.0652 1076.28 65.295 1076.38 66.3773C1076.48 67.4617 1076.82 68.3747 1077.39 69.1161C1077.97 69.8575 1078.74 70.4013 1079.71 70.7473C1080.25 70.9415 1080.78 71.0489 1081.29 71.0695C1081.81 71.0922 1082.29 71.03 1082.75 70.8828C1083.2 70.7292 1083.62 70.4936 1083.99 70.1759C1084.36 69.8605 1084.69 69.4616 1084.95 68.9793L1089.05 70.465C1088.64 71.3138 1088.09 72.0743 1087.4 72.7464C1086.71 73.4145 1085.9 73.9452 1084.97 74.3385C1084.05 74.7277 1083.04 74.9358 1081.93 74.9626C1080.84 74.9855 1079.67 74.777 1078.44 74.3372C1076.73 73.7255 1075.33 72.7886 1074.24 71.5265C1073.16 70.2666 1072.48 68.7581 1072.19 67.001C1071.91 65.2462 1072.12 63.3184 1072.82 61.2177C1073.52 59.1108 1074.51 57.4589 1075.78 56.2622C1077.06 55.0654 1078.51 54.3214 1080.11 54.03C1081.72 53.7323 1083.37 53.8849 1085.05 54.4876C1086.16 54.885 1087.14 55.4106 1087.98 56.0644C1088.83 56.7205 1089.53 57.4821 1090.06 58.3493C1090.6 59.2102 1090.95 60.1573 1091.13 61.1904C1091.31 62.2258 1091.28 63.3267 1091.03 64.4931ZM1095.56 80.4814C1094.11 79.9613 1092.95 79.2001 1092.1 78.1979C1091.25 77.1917 1090.73 76.0261 1090.53 74.7012C1090.33 73.37 1090.48 71.9622 1090.97 70.4779C1091.47 68.981 1092.19 67.7755 1093.14 66.8614C1094.09 65.941 1095.19 65.3581 1096.46 65.1127C1097.73 64.8633 1099.09 64.9987 1100.54 65.5188C1102 66.039 1103.15 66.8022 1103.99 67.8084C1104.85 68.8106 1105.37 69.9773 1105.57 71.3085C1105.77 72.6334 1105.63 74.0443 1105.13 75.5412C1104.63 77.0255 1103.91 78.2279 1102.96 79.1483C1102.02 80.0624 1100.91 80.6442 1099.64 80.8936C1098.37 81.139 1097.02 81.0016 1095.56 80.4814ZM1096.62 77.3749C1097.28 77.6115 1097.89 77.6204 1098.46 77.4015C1099.03 77.1764 1099.54 76.7738 1099.99 76.1938C1100.44 75.616 1100.8 74.9057 1101.08 74.0629C1101.36 73.2201 1101.5 72.4272 1101.49 71.6842C1101.48 70.9435 1101.32 70.302 1101.01 69.7598C1100.69 69.2177 1100.2 68.8283 1099.54 68.5916C1098.87 68.3528 1098.25 68.3437 1097.66 68.5643C1097.09 68.7873 1096.57 69.1876 1096.12 69.7654C1095.68 70.3454 1095.32 71.0568 1095.03 71.8996C1094.75 72.7424 1094.62 73.5342 1094.62 74.275C1094.63 75.0179 1094.8 75.6616 1095.12 76.206C1095.45 76.7464 1095.95 77.136 1096.62 77.3749ZM1102.99 88.9031L1109.62 68.9781L1113.56 70.3846L1112.75 72.8186L1112.92 72.8822C1113.23 72.5548 1113.61 72.249 1114.08 71.9648C1114.55 71.6765 1115.1 71.4932 1115.73 71.4147C1116.36 71.3322 1117.08 71.4349 1117.89 71.7229C1118.94 72.098 1119.81 72.7207 1120.51 73.5912C1121.22 74.4554 1121.65 75.5359 1121.81 76.8326C1121.98 78.123 1121.78 79.5984 1121.23 81.2588C1120.69 82.8752 1119.98 84.1474 1119.09 85.0753C1118.21 85.9992 1117.23 86.5888 1116.15 86.8441C1115.09 87.0954 1114.01 87.0257 1112.91 86.635C1112.14 86.3582 1111.52 85.9937 1111.07 85.5416C1110.62 85.0918 1110.28 84.6105 1110.07 84.0977C1109.86 83.5787 1109.73 83.0856 1109.68 82.6183L1109.56 82.5748L1106.98 90.3297L1102.99 88.9031ZM1111.12 77.62C1110.83 78.4817 1110.7 79.2757 1110.72 80.002C1110.74 80.7284 1110.92 81.3512 1111.25 81.8704C1111.58 82.3834 1112.07 82.7548 1112.71 82.9848C1113.36 83.2169 1113.97 83.2341 1114.54 83.0364C1115.11 82.8323 1115.62 82.4508 1116.06 81.8919C1116.52 81.3289 1116.88 80.6261 1117.16 79.7833C1117.44 78.9468 1117.57 78.1696 1117.55 77.4518C1117.53 76.7339 1117.36 76.1154 1117.03 75.5962C1116.7 75.0769 1116.21 74.7001 1115.55 74.4657C1114.9 74.2335 1114.29 74.21 1113.73 74.3952C1113.17 74.5826 1112.67 74.9515 1112.22 75.5019C1111.77 76.0523 1111.4 76.7583 1111.12 77.62ZM1121.15 95.3969C1120.64 95.2161 1120.18 95.0055 1119.76 94.7652C1119.35 94.5335 1119.02 94.3065 1118.78 94.0843L1120.67 91.4057C1121.09 91.7178 1121.49 91.9471 1121.86 92.0937C1122.23 92.2424 1122.59 92.2716 1122.93 92.1811C1123.27 92.0929 1123.61 91.8536 1123.93 91.4633L1124.37 90.9338L1124.17 74.1826L1128.37 75.6829L1127.8 87.3895L1127.95 87.4431L1134.5 77.8763L1138.72 79.3865L1127.79 93.4443C1127.26 94.1282 1126.67 94.6769 1126.02 95.0903C1125.37 95.5123 1124.64 95.7555 1123.83 95.8199C1123.03 95.8906 1122.13 95.7496 1121.15 95.3969ZM1139.8 95.9894L1140.75 74.7059L1145.18 76.2898L1143.88 90.8499L1144.04 90.9068L1152.01 78.7344L1155.8 80.0906L1154.82 94.7928L1154.99 94.8531L1162.64 82.5352L1167.07 84.1191L1155.15 101.478L1151.2 100.065L1151.75 86.1264L1151.6 86.0729L1143.76 97.4026L1139.8 95.9894ZM1161.3 103.679L1166.13 89.1878L1169.99 90.5708L1169.15 93.0991L1169.3 93.1527C1169.86 92.3471 1170.53 91.8252 1171.3 91.5871C1172.07 91.3427 1172.86 91.3645 1173.67 91.6525C1173.87 91.7239 1174.08 91.8135 1174.3 91.9213C1174.52 92.029 1174.71 92.1362 1174.87 92.2427L1173.69 95.8088C1173.52 95.6853 1173.28 95.5423 1172.96 95.38C1172.64 95.2176 1172.35 95.0873 1172.07 94.9891C1171.49 94.7792 1170.92 94.7206 1170.37 94.8133C1169.83 94.9019 1169.35 95.1246 1168.93 95.4815C1168.52 95.8406 1168.22 96.3157 1168.02 96.9069L1165.29 105.105L1161.3 103.679ZM1171.56 107.349L1176.39 92.8577L1180.37 94.2843L1175.55 108.775L1171.56 107.349ZM1179.01 91.7064C1178.42 91.4943 1177.98 91.1142 1177.68 90.5662C1177.4 90.0141 1177.35 89.4581 1177.54 88.8984C1177.72 88.3449 1178.09 87.9448 1178.64 87.6982C1179.2 87.4475 1179.77 87.4282 1180.37 87.6402C1180.96 87.8523 1181.4 88.2344 1181.68 88.7865C1181.97 89.3346 1182.03 89.8853 1181.84 90.4388C1181.66 90.9986 1181.28 91.4038 1180.73 91.6545C1180.18 91.9012 1179.6 91.9185 1179.01 91.7064ZM1190.69 97.9743L1189.69 100.993L1181.03 97.8957L1182.03 94.8768L1190.69 97.9743ZM1185.15 92.1082L1189.14 93.5348L1184.64 107.045C1184.52 107.416 1184.48 107.725 1184.52 107.973C1184.57 108.214 1184.68 108.412 1184.85 108.565C1185.03 108.72 1185.25 108.846 1185.52 108.942C1185.71 109.009 1185.9 109.06 1186.1 109.096C1186.3 109.125 1186.45 109.148 1186.56 109.165L1186.19 112.38C1185.97 112.371 1185.66 112.343 1185.27 112.295C1184.88 112.254 1184.43 112.15 1183.9 111.984C1182.93 111.678 1182.13 111.247 1181.5 110.693C1180.88 110.14 1180.48 109.481 1180.28 108.716C1180.09 107.95 1180.16 107.094 1180.48 106.146L1185.15 92.1082ZM1194.24 115.778C1192.76 115.249 1191.59 114.491 1190.72 113.506C1189.87 112.516 1189.34 111.362 1189.13 110.043C1188.93 108.719 1189.08 107.292 1189.59 105.764C1190.09 104.273 1190.81 103.067 1191.76 102.147C1192.71 101.227 1193.81 100.638 1195.06 100.382C1196.32 100.128 1197.65 100.254 1199.06 100.758C1200.01 101.098 1200.85 101.568 1201.56 102.168C1202.28 102.765 1202.85 103.477 1203.26 104.306C1203.67 105.137 1203.9 106.077 1203.93 107.124C1203.97 108.165 1203.79 109.302 1203.37 110.535L1203.01 111.638L1190.86 107.295L1191.69 104.805L1200.08 107.805C1200.27 107.226 1200.32 106.669 1200.22 106.133C1200.12 105.597 1199.89 105.124 1199.53 104.714C1199.18 104.3 1198.71 103.989 1198.13 103.782C1197.53 103.565 1196.94 103.515 1196.38 103.63C1195.83 103.742 1195.34 103.987 1194.92 104.365C1194.5 104.736 1194.2 105.207 1194 105.777L1193.21 108.145C1192.97 108.862 1192.9 109.529 1192.99 110.144C1193.08 110.762 1193.32 111.3 1193.72 111.757C1194.11 112.214 1194.64 112.562 1195.31 112.801C1195.75 112.96 1196.18 113.042 1196.59 113.048C1197 113.054 1197.38 112.978 1197.72 112.82C1198.07 112.662 1198.37 112.425 1198.63 112.11L1202.24 113.674C1201.75 114.501 1201.11 115.143 1200.31 115.602C1199.51 116.057 1198.6 116.307 1197.56 116.352C1196.54 116.393 1195.43 116.202 1194.24 115.778ZM1203.01 118.598L1207.84 104.107L1211.7 105.49L1210.86 108.018L1211.01 108.072C1211.57 107.266 1212.24 106.744 1213.01 106.506C1213.78 106.262 1214.57 106.284 1215.38 106.572C1215.58 106.643 1215.79 106.733 1216.01 106.841C1216.23 106.948 1216.42 107.055 1216.58 107.162L1215.4 110.728C1215.23 110.605 1214.99 110.462 1214.67 110.299C1214.35 110.137 1214.06 110.007 1213.78 109.908C1213.2 109.699 1212.63 109.64 1212.08 109.733C1211.54 109.821 1211.06 110.044 1210.65 110.401C1210.23 110.76 1209.93 111.235 1209.73 111.826L1207 120.024L1203.01 118.598Z" fill="#1A1C1E"/>
<defs>
<linearGradient id="paint0_linear_19_3" x1="-56.741" y1="57.8291" x2="261.703" y2="57.8291" gradientUnits="userSpaceOnUse">
<stop offset="0.236115" stop-color="#FD6542"/>
<stop offset="0.526874" stop-color="#E80370"/>
<stop offset="0.847529" stop-color="#5D0D56"/>
</linearGradient>
<linearGradient id="paint1_linear_19_3" x1="-69.8419" y1="57.8674" x2="322.128" y2="57.8674" gradientUnits="userSpaceOnUse">
<stop offset="0.236115" stop-color="#FD6542"/>
<stop offset="0.526874" stop-color="#E80370"/>
<stop offset="0.847529" stop-color="#5D0D56"/>
<stop offset="0.929166" stop-color="#5D0D56"/>
</linearGradient>
<linearGradient id="paint2_linear_19_3" x1="-69.1468" y1="57.6478" x2="318.922" y2="57.6478" gradientUnits="userSpaceOnUse">
<stop offset="0.236115" stop-color="#FD6542"/>
<stop offset="0.526874" stop-color="#E80370"/>
<stop offset="0.847529" stop-color="#5D0D56"/>
</linearGradient>
<linearGradient id="paint3_linear_19_3" x1="-69.3111" y1="57.9017" x2="319.68" y2="57.9017" gradientUnits="userSpaceOnUse">
<stop offset="0.236115" stop-color="#FD6542"/>
<stop offset="0.526874" stop-color="#E80370"/>
<stop offset="0.847529" stop-color="#5D0D56"/>
</linearGradient>
<linearGradient id="paint4_linear_19_3" x1="-81.0879" y1="57.8327" x2="373.997" y2="57.8328" gradientUnits="userSpaceOnUse">
<stop offset="0.236115" stop-color="#FD6542"/>
<stop offset="0.526874" stop-color="#E80370"/>
<stop offset="0.847529" stop-color="#5D0D56"/>
</linearGradient>
<linearGradient id="paint5_linear_19_3" x1="-42.9526" y1="57.7119" x2="284.156" y2="56.3743" gradientUnits="userSpaceOnUse">
<stop offset="0.0999647" stop-color="#5D0D56"/>
<stop offset="0.430202" stop-color="#E80370"/>
<stop offset="0.866594" stop-color="#FD6542"/>
</linearGradient>
<linearGradient id="paint6_linear_19_3" x1="-47.0923" y1="57.7225" x2="217.201" y2="57.7225" gradientUnits="userSpaceOnUse">
<stop offset="0.236115" stop-color="#FD6542"/>
<stop offset="0.526874" stop-color="#E80370"/>
<stop offset="0.847529" stop-color="#5D0D56"/>
</linearGradient>
</defs>
</svg>
